<?xml version="1.0" encoding="UTF-8" standalone="no"?>
<svg id="svg4136" xmlns:rdf="http://www.w3.org/1999/02/22-rdf-syntax-ns#" xmlns="http://www.w3.org/2000/svg" height="1e3" viewBox="0 0 1600 1000" width="1600" version="1.1" xmlns:cc="http://creativecommons.org/ns#" xmlns:dc="http://purl.org/dc/elements/1.1/">
<defs id="defs4140">
<pattern id="pattern5274" width="200.00003" patternUnits="userSpaceOnUse" patternTransform="translate(0,800)" height="200">
<path id="path4150" d="m0.01991 0c-0.002 0.0539 0.0263 0.0907 0.12102 0.0904 0.35884-0.001 0.73854-0.0333 1.1367-0.0904h-1.2577zm8.8189 0 1.1749 0.0307c2.2742 0.0589 23.151 5.0575 24.433 5.85 1.3911 0.85969 13.491 2.9448 17.108 2.9487 5.5086 0.006 8.9727-1.6398 14.452-6.8656 0.845-0.8063 1.521-1.4279 2.121-1.9637h-8.3349c-0.257 0.13996-0.501 0.28079-0.72 0.42121-7.143 4.5882-17.777 4.7675-30.72 0.51774-1.06-0.348-2.042-0.65307-2.992-0.93898h-16.523zm21.368 0c11.232 3.0995 21.491 3.1034 26.386 0h-26.386zm39.745 0c-0.358 0.73727-0.871 1.6869-1.597 2.9533-7.42 12.937-20.064 14.708-41.201 5.7749-12.703-5.3686-20.692-7.5997-27.154-6.8671v1.1626c1.3233-0.78052 2.9926-0.57249 4.398 0.98036 0.94568 1.0449 1.9909 1.4086 3.1847 1.109 2.7938-0.70118 5.0613 0.94357 5.0613 3.6717 0 2.3748-1.2592 3.997-5.9191 7.6207-1.2738 0.99054-1.7868 1.5488-1.1397 1.2408 0.64706-0.30806 2.4118-1.5135 3.9216-2.6776 6.1261-4.7233 13.44-2.1094 10.334 3.6932-0.55198 1.0314-0.4653 2.0278 0.29719 3.4052 4.3835 7.9187-3.9395 10.205-12.021 3.301-2.2765-1.9448-4.3162-3.3599-4.5328-3.1432-0.21661 0.21659 1.5011 1.825 3.8174 3.5737 7.4361 5.6141 7.9214 12.315 0.89461 12.349-1.7072 0.008-4.051 0.65052-5.2083 1.4276-1.0992 0.738-2.1623 0.941-3.0879 0.732v5.369c16.17-2.4975 25.39-11.764 25.522-26.166 0.0685-7.433 0.46782-8.2448 2.1247-4.3182 4.5784 10.85-1.4298 25.911-12.503 31.345l-5.2451 2.575-9.8989-0.15v41.398c0.61544 0.18339 1.1928 0.3424 1.6176 0.42736l2.2243 0.445-0.4213-3.732c-0.34158-3.0304-0.1493-3.9306 1.0218-4.7869 4.9525-3.6212 10.492 2.8824 6.633 7.7877-2.0212 2.5695-2.0343 2.5238 1.0983 4.0103 3.7796 1.7934 5.4626 1.6978 4.4194-0.25122-2.9498-5.5116 2.8076-11.334 7.0312-7.1106 2.2642 2.2641 2.0363 6.0929-0.52237 8.7634l-2.0925 2.1828 4.542 2.0802c5.9608 2.7288 15.245 2.4114 25.916-0.88385 3.8824-1.1989 8.9384-2.3919 11.236-2.6516l4.1789-0.47179-5.6342-3.7254c-6.0442-3.9966-7.0358-4.3605-7.0358-2.5872 0 1.7024-2.3784 2.7354-4.4684 1.9408-1.6625-0.63207-1.8061-0.47835-1.8061 1.9423 0 3.5607-1.6462 4.8736-4.5849 3.6564-1.2282-0.50872-3.141-0.69673-4.2509-0.41819-4.9482 1.2419-5.3783-4.9135-0.65564-9.3869 1.3375-1.2669 2.4326-2.543 2.4326-2.8369 0-0.29389-1.5424 1.0062-3.4268 2.8905-6.1602 6.16-9.4089 4.846-9.6048-3.8862-0.14024-6.2519 1.5275-8.006 5.7766-6.0767l2.1569 0.97883-1.7647-1.8841c-2.8012-2.9911-1.8708-6.0966 1.826-6.0966 0.93933 0 2.1468-0.52939 2.6838-1.1764 1.4608-1.7601 3.7253-1.4212 5.1624 0.77203 1.1606 1.7712 1.4222 1.8452 2.8845 0.82104 1.92-1.3448 4.5021-0.32635 4.5021 1.7754 0 0.74378 0.70588 1.7926 1.5686 2.3314 1.6618 1.0378 2.1111 3.6762 0.76747 4.5066-0.46892 0.28979-0.0623 1.1011 0.98039 1.9561 1.5845 1.2992 1.6654 1.6506 0.72916 3.1846-1.0891 1.7844-0.29864 3.0408 1.9317 3.0713 0.48318 0.007 4.2889 2.293 8.4589 5.081 7.1797 4.8001 11.428 6.6949 14.975 6.6802 0.9923-0.004 0.27278-0.65063-1.9577-1.76-16.851-8.3813-17.468-29.151-1.3756-46.257 7.0064-7.4482 14.686-20.218 14.718-24.472 0.007-0.88554 0.3539-2.1393 0.77206-2.7864 0.54137-0.83765 0.76352 0.079 0.77207 3.1816 0.0173 6.2952-2.6859 13.379-8.2001 21.491-21.014 30.915-20.705 38.98 1.9378 50.686 3.6667 1.8956 8.3431 5.0616 10.392 7.0356 2.049 1.9739 3.7218 3.5655 3.7163 3.5369-1.0414-5.7172-4.5662-13.349-6.0662-13.135-1.2551 0.17871-2.0119-0.32083-2.667-1.7585-0.69037-1.5151-1.1634-1.8028-1.9256-1.1703-1.6907 1.4031-4.5381 0.47946-5.6418-1.8305-0.56679-1.1862-1.5151-2.1568-2.1078-2.1568-3.2914 0-4.0234-4.515-1.0677-6.5852 1.4174-0.99278 1.3691-1.0997-0.91298-2.045-4.2113-1.7443-4.7333-5.641-1.034-7.7111 0.71106-0.39792 1.6762-1.9131 2.1461-3.3669 1.2015-3.7172 4.8962-4.1256 7.6562-0.84555l1.9148 2.2747 0.0735-2.6454c0.16583-5.8497 4.1865-8.2606 7.6118-4.5648 0.99946 1.0784 2.6923 1.9607 3.7622 1.9607 6.2484 0 5.8815 6.8578-0.56985 10.638-1.9332 1.1329-3.5156 2.2352-3.5156 2.4509 0 0.21569 1.5989-0.54544 3.5539-1.6911 2.3366-1.3693 4.4194-1.9985 6.0784-1.8382l2.5245 0.24356 0.0475 6.1303c0.0528 6.8052-0.82128 8.0615-5.1608 7.4246-2.0194-0.29637-2.1329-0.17772-1.4782 1.5441 1.0953 2.8807-0.46228 5.1366-3.2628 4.7256-2.4704-0.36257-2.5038-0.004-0.60203 6.2528 0.98449 3.2392 1.6651 3.2162 2.863-0.0965 0.52613-1.4549 3.0457-5.012 5.599-7.9041 5.595-6.3376 5.9524-7.693 4.3918-16.614-0.66898-3.8243-1.2163-8.8588-1.2178-11.188-0.002-2.9806-0.61614-5.4865-2.0711-8.4602-1.747-3.5706-1.9969-4.9028-1.6161-8.5919 0.88441-8.5689-8.7767-11.368-13.915-4.0317-3.6845 5.2602 0.65187 12.086 5.337 8.4004 2.339-1.8398 2.6044-3.2263 0.89002-4.649-1.3056-1.0835-3.9104 0.31722-3.0821 1.6574 0.23639 0.38248 0.0555 0.69543-0.40135 0.69543-1.2072 0-1.0165-1.269 0.40289-2.6883 1.4581-1.4581 1.5628-1.4712 3.5248-0.42125 2.0555 1.1 1.9119 4.0337-0.29871 6.1104-2.4894 2.3386-5.5307 2.1926-7.5398-0.36151-6.1236-7.7846 7.0031-18.921 14.684-12.458 1.3824 1.1631 2.5138 1.7595 2.5138 1.325 0-4.1448 8.4604-4.3232 10.162-0.21447 2.5192 6.0815-3.6236 10.19-8.6964 5.8163-1.7812-1.5356-2.5991 1.8238-1.4675 6.0261 1.0979 4.077 1.9251 4.426 4.784 2.0204 3.012-2.5343 5.721-2.5647 8.1939-0.0919 5.2065 5.2063-0.80857 12.115-7.5245 8.6424l-2.3146-1.1963v2.8629c0 1.5752 0.55533 6.1261 1.2347 10.111 1.6112 9.452 0.96545 11.89-4.7258 17.842-6.5982 6.9012-7.0244 8.1328-6.731 19.417 0.11564 4.4474 0.24263 4.8476 1.0018 3.1371 0.47863-1.0784 2.7116-6.0194 4.9617-10.98 4.4712-9.8573 7.3958-19.259 7.3958-23.775 0-4.3474 1.2844-3.4738 1.8398 1.2515 0.58969 5.0172-0.27892 10.683-2.8906 18.863-1.625 5.0897-1.7363 5.9562-0.65104 5.0534 0.7204-0.59926 2.2471-1.4874 3.3931-1.9745 1.429-0.60747 2.2535-1.7022 2.6256-3.4849 2.6462-12.678 12.688-7.0469 16.852 9.4512 1.4701 5.825 1.6721 9.5853 0.32626 6.0782-0.27653-0.72076-1.1705-1.6679-1.9868-2.1047-1.4236-0.76188-1.4213-0.69033 0.0689 1.76l1.5533 2.555-1.7418 1.8596-1.7417 1.8596 2.1599-0.98035c2.8124-1.277 3.197-0.76534 1.8658 2.4861-2.9239 7.1421-1.6641 8.4322 1.4629 1.4981 1.7158-3.8048 2.7107-4.012 2.8493-0.59281l0.10414 2.5489 0.52546-2.745c0.28927-1.5098 0.19953-3.1864-0.19913-3.7254-0.55613-0.75172-0.10794-0.87761 1.9209-0.54379l2.644 0.43504-2.2181-1.2775c-1.4382-0.82798-2.0581-1.6968-1.7617-2.4693 1.528-3.9818 1.4024-5.3949-0.24967-2.8109-2.3251 3.6366-2.6141 3.3488-4.7304-4.7149-4.3255-16.481 3.2404-28.593 10.59-16.951 1.541 2.441 2.3882 3.0391 4.3015 3.0391 11.027 0 10.25 10.636-1.2255 16.782-7.3569 3.9401-7.8655 5.2911-0.60047 1.5946 11.77-5.9887 18.555-2.9985 13.848 6.1027-1.0435 2.0176-1.1072 2.9619-0.36307 5.4456 2.6369 8.8008-6.6548 10.267-15.161 2.3927-4.7297-4.3787-4.7417-4.3858-1.1474-0.53153 7.885 8.4554 7.1491 17.268-1.2117 14.509-2.7195-0.89747-2.7633-0.87421-7.6777 4.1221-3.6948 3.7564-6.0871 5.4508-9.4807 6.7139-7.0387 2.6198-13.029 2.2007-20.09-1.4062-8.018-4.0957-9.0447-4.2724-25.175-4.3151-25.948-0.0687-38.94-12.238-33.402-31.287 1.7936-6.1694 2.553-6.0251 2.5996 0.49632 0.12734 17.851 10.587 26.585 33.485 27.963 8.281 0.49834 12.104 1.0873 15.282 2.3513l4.2387 1.685-1.9884-2.6056c-1.0932-1.4332-3.2718-5.3133-4.8422-8.6225-4.2018-8.8542-11.316-15.589-9.6216-9.1081 1.0421 3.9847-2.706 5.9163-6.4246 3.3118-1.696-1.1879-1.7981-1.1758-1.6529 0.19607 0.62055 5.861-2.4956 8.7138-6.3817 5.8408-1.6644-1.2305-2.9755-1.6026-4.4838-1.2714-6.8702 1.5088-6.8735-5.2435-0.006-11.678 4.9722-4.659 4.3336-4.6356-1.0264 0.0383-6.6017 5.7567-15.549 2.6332-11.25-3.9276 1.0314-1.574 1.1522-2.5143 0.54687-4.2508-1.4067-4.0352 2.336-7.222 6.5855-5.6064 1.8011 0.68475 1.9811 0.61192 1.4798-0.60659-1.3135-3.1928-1.2985-4.2675 0.0797-5.7902 1.0318-1.1401 2.0608-1.4833 3.5493-1.1856 1.4149 0.28297 2.6699-0.0786 3.8634-1.1136 2.7275-2.3655 7.0175-0.1218 7.0175 3.6702 0 1.3312 0.10683 1.3281 2.788-0.0628 2.8857-1.4971 5.0551-0.37697 5.0551 2.6087 0 1.212 0.70588 2.842 1.5686 3.6227 2.0256 1.833 1.9958 3.9252-0.0766 5.3766l-1.6452 1.1519 1.6988 0.90991c1.2342 0.66049 1.6351 1.5091 1.4675 3.1065-0.17591 1.6769 0.3768 2.71 2.33 4.3534 1.4082 1.1848 3.2368 3.4344 4.064 4.9998l1.5043 2.8461 0.0337-4.7103c0.0191-2.591 0.36018-5.8467 0.75828-7.2347 1.5557-5.4242-3.835-16.157-9.617-19.146-1.3462-0.69593-1.2109-0.35069 0.6587 1.6804 1.9106 2.0756 2.0301 2.3894 0.63266 1.6666-0.94657-0.48958-1.9433-1.2478-2.2135-1.685-4.406-7.131-19.553-6.811-36.952 0.78-24.004 10.47-43.6 6.28-45.304-9.699-0.2953-2.772-2.3063-4.076-7.3557-4.767-0.7648-0.105-1.6829-0.319-2.6272-0.57v55.2c1.8457 2.4383 3.9498 5.1109 6.3649 8.091 12.712 15.687 11.56 32.922-2.7757 41.555-2.1498 1.2945-3.5819 2.3794-3.5723 2.6699h1.1964c3.0376-0.41443 7.2708-2.4854 13.459-6.5653 4.2107-2.7762 8.6892-5.2742 9.951-5.5513 1.667-0.36612 2.0585-0.73862 1.4323-1.3648-1.4636-1.4636-1.01-4.4651 0.77512-5.1254 1.4726-0.54472 1.5121-0.71113 0.39216-1.6406-1.6887-1.4014-1.566-2.9806 0.32322-4.1604 0.86275-0.53877 1.5686-1.5876 1.5686-2.3314 0-2.6321 2.9307-3.2533 5.1026-1.0814l1.9562 1.9546v-1.7677c0-3.272 4.9072-5.2982 5.9911-2.4739 0.24831 0.64704 1.2525 1.1764 2.2319 1.1764 2.7622 0 4.0159 2.0075 2.9749 4.7654-0.8178 2.1665-0.76676 2.264 0.96048 1.8305 2.343-0.58803 5.499 2.3053 4.6354 4.2492-0.32055 0.72152-0.6132 3.0759-0.64951 5.2326l-0.0659 3.9214-3.5876-0.0413c-3.2768-0.0371-3.5582 0.1085-3.2583 1.6773 0.61561 3.2202-1.1841 5.2438-4.1667 4.6842-1.6167-0.30329-3.266-0.10706-4.2494 0.50703-2.4032 1.5008-4.3459-0.0614-4.3459-3.4956 0-2.5276-0.1444-2.6992-1.7586-2.0848-2.77 1.0544-4.6163-0.092-4.2172-2.6194 0.21734-1.3765-6.5197 2.1119-10.887 5.637l-1.9608 1.5824 3.2062 0.0184c1.7631 0.01 6.7043 1.0966 10.98 2.4172 0.74587 0.23035 1.4871 0.44594 2.2258 0.64949h26.35c0.28298-0.17882 0.55323-0.36572 0.79963-0.56523l1.7494-1.4169-2.068-2.0664c-2.487-2.4869-2.6339-5.1273-0.44117-7.9148 3.4897-4.4363 8.2803-1.505 7.5873 4.6429-0.40306 3.5758-0.38681 3.6063 1.6606 3.1034 2.8828-0.7081 6.2028-2.9446 4.977-3.3531-3.1776-1.0592-3.6106-7.0613-0.68473-9.4895 3.61-2.9959 8.7908 1.5157 7.0466 6.1364-1.0724 2.8409-0.75569 2.9143 5.0965 1.1764 4.76-1.4135 4.7703-1.4378 1.7111-4.0118-3.0872-2.5976-3.169-5.7898-0.20833-8.1186 5.1626-4.0608 11.159 1.257 8.0239 7.1152-0.94838 1.772-0.94218 1.7736 2.2212 0.67093 2.1542-0.75093 2.3458-1.0596 1.705-2.745-1.4942-3.9299 2.2128-8.3714 5.5132-6.6051 2.2532 1.2058 2.0352 4.7792-0.43351 7.0984-3.8474 3.6143 1.7764 5.1956 8.1664 2.2962 8.6035-3.9038 16.728 6.0399 8.4498 10.341-1.6341 0.849-1.6323 0.82366 0.0919-1.0539 5.4826-5.9701-0.29659-11.518-8.4314-8.094-5.4867 2.3092-5.6643 2.3238-9.0089 0.7368-2.8824-1.3677-8.9256-0.15292-14.03 2.82-1.3483 0.78524-4.7451 1.8875-7.549 2.4494-2.8039 0.56187-6.2221 1.7733-7.5965 2.6929s-3.9522 1.905-5.7276 2.1889c-1.5363 0.24566-3.805 1.081-5.4228 1.9653h8.341c2.331-2.0822 2.8594-2.1176 1.8275 0h51.069c1.2045-1.3814 3.227-2.2655 6.08-2.2655 1.6262 0 2.7962-0.75028 4.3551-2.794 4.211-5.5206 8.8196-5.1544 11.504 0.9145 0.6622 1.4969 1.0679 2.727 1.1963 4.145h4.4915c3.7303-4.7255 8.0703-5.1662 10.394 0h5.291c-1.6215-6.763-2.4173-16.347-1.3449-18.264 0.554-0.98981 0.98039 0.21443 1.6897 4.7762 0.51433 3.3087 2.1245 8.6811 4.0135 13.488h5.6005c-0.98653-1.4965-2.2564-3.0987-3.8878-4.963-4.7812-5.4635-5.1895-6.7021-4.4961-13.644 0.28726-2.8746 0.73133-7.781 0.98806-10.903l0.4672-5.6769-2.4617 1.2285c-6.7942 3.3893-12.434-3.811-7.1354-9.1096 2.1907-2.1906 4.989-1.9222 8.0576 0.77202l2.644 2.3192 1.3052-2.7389c1.4407-3.0211 1.7521-8.5917 0.52233-9.3517-0.4314-0.26659-0.78433-0.15185-0.78433 0.25581 0 3.995-8.8334 3.106-9.8621-0.9926-1.6403-6.5355 7.2386-10.363 10.571-4.5571 0.71967 1.2537 0.9648 1.1858 2.8171-0.78428 6.3074-6.7082 18.864 3.1158 14.835 11.606-2.2361 4.7122-8.3183 4.3339-10.063-0.6265-0.7194-2.0454 0.9672-5.2939 2.7481-5.2939 1.1151 0 3.0726 2.4496 3.0224 3.782-0.0373 0.9834-0.223 0.88906-0.73067-0.36916-1.1687-2.8964-4.7105-2.4447-4.7105 0.60048 0 1.0408 3.6443 4.6138 4.7059 4.6138 4.5945 0 5.9697-7.5202 2.0849-11.404-6.1268-6.1266-13.966-3.5453-12.263 4.0378 0.82414 3.6675-0.10493 8.3885-2.2089 11.234-0.9782 1.323-1.3927 2.8737-1.1734 4.384 0.18654 1.2851-0.21486 5.774-0.893 9.9751-2.1502 13.321-1.9811 14.145 4.5129 21.984 0.8232 0.99389 1.7264 2.3067 2.5199 3.6212h5.2665c0.85306-3.3569 0.57353-3.6848-0.98807-3.2765-2.4883 0.65069-4.1377-1.2501-3.6565-4.2155 0.3942-2.4287 0.30947-2.5339-1.7065-2.1307-2.9497 0.58993-5.3426-1.981-4.0655-4.3672 0.66953-1.2504 0.6502-2.3176-0.0767-4.3274-1.701-4.704 2.4323-6.8682 7.0359-3.684 5.3982 3.7338 4.4655 2.4569-1.6437-2.2502-3.8279-2.9494-2.6553-8.6011 1.7846-8.6011 1.1826 0 2.8439-0.8348 3.9017-1.9607 3.1533-3.3563 7.8431-0.86693 7.8431 4.1634v1.9929l1.8153-1.7064c3.212-3.0174 7.5965-1.8646 7.5965 1.9975 0 1.0187 0.51246 1.8623 1.4737 2.4524v-17.357c-2.1968-3.5937-4.5729-7.4821-6.0723-9.9276-4.3529-7.0992-7.166-14.83-7.166-19.69 0-4.2193 1.2903-4.5522 1.8995-0.49018 0.80174 5.3465 3.8855 11.216 11.339 21.062v-55.2c-1.8636-0.49496-3.8623-1.191-5.216-1.878-7.0719-3.5891-11.439-4.4552-14.675-2.912-2.453 1.1697-3.1511 1.2072-5.3401 0.2941-8.3253-3.4727-15.219 3.2288-8.5433 8.3039 0.7572 0.57558 0.92114 1.0151 0.38447 1.0294-0.51473 0.0137-1.4853-0.76-2.1568-1.7187-4.1296-5.8956 4.1544-14.026 9.3275-9.154 2.9879 2.8136 8.1374-0.26525 5.5622-3.3256-2.2869-2.7177-2.5245-4.7409-0.76133-6.504 2.8284-2.8283 6.1517-0.27403 6.247 4.8022 0.0533 2.8398 0.40367 3.7747 1.5885 4.2385 2.4691 0.96664 2.6977 0.81031 1.8934-1.3051-2.1745-5.7194 1.9133-9.7899 7.3469-7.3144 4.2749 1.9477 4.4229 6.8343 0.28333 9.3516l-2.4449 1.4874 2.9489 1.2316c1.0589 0.44239 2.3987 0.90528 3.5555 1.25v-41.399l-3.4344-0.0521c-14.84-0.22529-18.763 0.36131-26.275 3.9306-8.4165 3.9994-19.79 3.4269-24.965-1.2561-0.78786-0.71298-1.8239-1.2959-2.3023-1.2959-0.47846 0-2.0297-1.6144-3.4467-3.5875-1.9738-2.7484-2.9484-3.4901-4.1666-3.1739-5.5257 1.4342-5.7504 1.4248-7.4862-0.31097-2.6167-2.6166-1.7653-7.1065 2.1369-11.266 5.4052-5.762 6.1776-7.2633 1.3802-2.6837-8.771 8.3727-17.842 7.6886-15.478-1.1672 0.76271-2.8574 0.67871-3.625-0.63112-5.7443-5.4391-8.8002 1.9351-12.162 13.647-6.2222 5.1459 2.6099 6.5422 3.0964 4.905 1.7095-1.2587-1.0663-4.179-2.896-6.4905-4.0654-7.27-3.674-9.43-10.31-6.39-13.783h-51.071zm74.199 0c0.2314 2.5324-0.42794 5.6705-2.14 12.055-2.0043 7.4745-2.4248 7.9378-4.28 4.7057l-1.2378-2.1568 0.46722 2.9625c0.43766 2.7694 0.29988 3.0394-2.1201 4.1451l-2.5888 1.1825 2.9412-0.26193c1.7939-0.15987 2.6577 0.02 2.2166 0.46107-0.44106 0.44105-0.37014 1.4946 0.18076 2.7036l0.90228 1.9822 0.4672-1.881c0.4234-1.7089 0.65753-1.5089 2.5505 2.1798 3.5921 6.9994 4.7045 6.656 1.777-0.54839-1.9393-4.7725-1.0913-6.5904 1.7494-3.7499 0.5176 0.51763 0.94054 0.60382 0.94054 0.18995 0-0.41386-0.72107-1.2036-1.6023-1.7539l-1.6023-1.0003 1.6023-2.2502c2.3393-3.2852 1.9591-3.8146-0.84406-1.1749-2.0114 1.8942-2.3653 2.0251-1.9914 0.73527 0.25007-0.86271 1.2159-4.392 2.1461-7.8428 1.2395-4.5981 3.0191-8.221 4.9648-10.683h-4.4991zm14.884 0c0.32054 0.71147 0.6056 1.5194 0.84254 2.4478 0.52539 2.0587 1.5024 3.1893 3.9078 4.5234l3.2077 1.78-1.9378-6.0935c-0.25-0.8105-0.5-1.7066-0.72-2.6577h-5.291zm9.6492 0c0.1658 0.42213 0.32974 0.84763 0.4994 1.2591 5.2548 12.744 8.7699 23.686 9.3888 29.222l0.5484 4.8956 2.1982-3.468c1.2098-1.9075 2.8715-3.827 3.6918-4.2661 1.0978-0.58743 1.4016-1.4124 1.1505-3.1233-0.26386-1.7974 0.05-2.5348 1.3817-3.2474l1.7218-0.92214-1.6437-1.5303c-2.0431-1.9032-2.0547-2.6281-0.075-4.6077 0.86273-0.86272 1.5686-2.2744 1.5686-3.1371 0-4.315 6.4779-5.4259 8.1021-1.3893 0.2206 0.54827 0.4304-0.27212 0.46413-1.8228 0.0513-2.3501 1.0183-4.0717 2.3192-4.839v-1.1626c-4.091 0.46382-7.5713 2.1124-11.244 4.9156-4.1627 3.1773-4.6499 2.8968-1.0141-0.58361l2.549-2.4402-2.3529 1.4093c-3.3843 2.0271-6.6283 5.1792-7.9642 7.7371-0.6366 1.2192-1.4216 3.6897-1.7447 5.49-0.95826 5.3394-1.8965 0.79637-1.2531-6.069 0.483-5.1535-0.0733-8.3495-2.693-12.32h-5.5989zm6.731 0c0.7992 1.3234 1.4865 2.6491 1.8689 3.6564l1.3848 3.6472 1.3005-4.6352c0.3-1.0769 0.53-1.9227 0.72-2.6684h-5.2727zm7.189 0c-0.31307 1.3636-0.91407 3.4162-1.6252 5.4517l-1.8613 5.3276 3.678-3.5768c1.94-1.8774 6.42-4.8899 10.67-7.2025h-10.852zm-14.465 13.733c-0.17827 0.0364-0.3452 0.27872-0.53613 0.66174-1.3739 2.7556-5.8059 5.298-9.3888 5.3874l-3.2169 0.0812 2.7344 0.64183c7.1357 1.6777 9.4114 9.2292 3.5401 11.746-4.25 1.8217-4.2431 1.7653-0.69393 5.6937 3.8327 4.2422 3.5471 8.9348-0.78586 12.905l-2.8109 2.5765h3.0024c12.441 0 16.964-13.489 10.979-32.735-1.6571-5.3279-2.2885-7.0681-2.8233-6.959zm-165.97 3.874c-0.0675 0.001-0.14508 0.0933-0.22364 0.28645-0.2095 0.515-0.94455 0.72-1.6345 0.455-0.12382-0.048-0.2102-0.064-0.3079-0.09v2.936c0.0199 0.0863 0.0229 0.1792 0 0.28186v1.3863c1.3142-0.65318 1.6501-0.51685 2.0558 0.7613 0.69495 2.1896 1.1061 1.9544 0.93136-0.53307-0.1146-1.6311 0.29184-2.2281 1.8137-2.6669l1.9607-0.565-2.1568-0.078c-1.4756-0.053-2.1758-0.511-2.2182-1.45-0.0213-0.472-0.108-0.725-0.2206-0.723zm197.47 0.58362c-0.2414 0.0148-0.262 0.19833-0.0473 0.54532 0.347 0.56142-0.51007 0.97863-2.4203 1.178l-2.958 0.30942 2.9411 0.13174c1.8178 0.0815 2.7255 0.31711 2.8462 0.83943v-2.9365c-0.13933-0.0375-0.2764-0.0726-0.36147-0.0674zm-48.955 1.5992c-0.78187 0-1.5637 0.0449-2.1569 0.13479-1.1863 0.1797-0.21566 0.32781 2.1569 0.32781s3.3431-0.14811 2.1569-0.32781c-0.59313-0.0899-1.375-0.13479-2.1569-0.13479zm49.317 1.6865c-0.0748 0.33614-0.3748 0.76189-0.8854 1.302-0.80807 0.85487-0.679 0.88287 0.7322 0.15777 0.056-0.0289 0.10027-0.0472 0.1532-0.0735v-1.3863zm-134.15 4.283c0.4722 0.0305 1.2871 0.51286 2.4234 1.469 7.1347 6.0032 7.9848 17.033 1.7417 22.586-0.91874 0.81726-2.7893 3.2309-4.1575 5.3628-1.7983 2.8022-2.6294 5.2157-3.0009 8.7098-0.50534 4.7534-0.5242 4.7842-1.1382 1.8918-0.81846-3.8558-0.0568-7.6138 2.8156-13.887 4.5053-9.84 5.0696-16.536 1.9087-22.635-1.2156-2.3456-1.3798-3.5479-0.59284-3.4971zm122.02 2.3559c-1.712 0.0787-4.9602 4.0214-8.2169 10.517-1.8088 3.6078-4.0159 7.5887-4.9051 8.8462l-1.6161 2.2854 1.9103-0.5928c7.1307-2.2155 10.399-2.8038 15.611-2.8093 3.3302-0.003 6.4451-0.23737 9.3413-0.68471v-5.369c-2.1519-0.48522-3.5489-3.225-2.8539-6.861l0.36613-1.9132-1.9515 1.5349c-3.4586 2.7204-6.4461 1.5424-6.4461-2.5428 0-1.6836-0.46113-2.4468-1.2393-2.4111zm-135.89 1.9316c0.90325-0.0315 1.7795 0.41107 2.379 1.371 0.55585 0.89001 1.7903 1.6176 2.7436 1.6176 2.1932 0 3.4296 2.1189 2.5643 4.3947-0.54758 1.4402-0.34145 1.8125 1.2194 2.2043 1.7273 0.4335 1.8637 0.82005 1.7019 4.8175-0.18216 4.5003-1.3305 6.1639-3.7378 5.4164-0.88182-0.2738-1.2216 0.1141-1.1765 1.3419 0.0433 1.1793-0.50909 1.8661-1.7417 2.1675-1.7831 0.43596-1.7537 0.54458 2.4648 9.1387 2.3479 4.7834 4.6934 10.607 5.2129 12.941 0.51956 2.334 0.78715 5.3019 0.59436 6.596l-0.345 2.352-0.117-2.181c-0.358-6.653-5.13-12.215-13.002-15.154-3.051-1.139-7.348-2.753-9.548-3.587-7.408-2.809-12.862-10.532-12.862-18.214 0-5.6509 1.1674-6.1956 2.3866-1.1136 1.292 5.3854 5.2506 9.5939 14.364 15.274 3.9438 2.4578 8.8797 5.6955 10.968 7.1949l3.796 2.7266-2.4556-4.6015c-1.3507-2.531-2.8353-6.1108-3.2996-7.9546-0.76181-3.0253-1.0313-3.305-2.7619-2.8706-1.5035 0.37733-2.0096 0.13067-2.3422-1.1412-0.35623-1.3622-0.65763-1.4769-1.8796-0.71382-1.1931 0.74509-1.7872 0.59649-3.3027-0.82718-1.0167-0.95508-2.2674-1.7371-2.7788-1.7371-1.1489 0-1.2389-3.6387-0.10723-4.3381 0.49866-0.30818 0.0381-1.2359-1.1688-2.3544-2.1663-2.0076-2.0121-3.8096 0.43812-5.1208 0.81199-0.43455 1.4767-1.4948 1.4767-2.3559 0-2.0084 1.9329-2.7442 4.3352-1.6498 1.6683 0.76008 1.9976 0.61684 2.8983-1.2683 0.72-1.5069 1.9269-2.3306 3.0882-2.3712zm106.25 7.4047c-0.63474-0.0475-1.369 0.45446-2.3652 1.4506-2.3939 2.3938-4.8928 2.522-7.1845 0.36916l-1.7095-1.6053-0.4596 2.2962c-0.6612 3.3059-2.6925 5.0438-5.4243 4.6429l-2.2809-0.33394 2.7803 2.7802c1.5294 1.5293 4.2894 3.4074 6.1336 4.1726 8.0058 3.3223 15.917-3.3155 12.811-10.749-0.83293-1.9934-1.4848-2.9627-2.3008-3.0238zm-42.054 4.3044c-1.0196 0.0259-2.0918 0.71041-3.1464 2.0511l-1.6866 2.1445 2.065 1.7769c4.1175 3.5416 8.5026 0.35356 5.602-4.0731-0.84688-1.2925-1.8143-1.9253-2.8339-1.8994zm-63.894 0.14399c-0.13792-0.0225-0.50512 0.30171-1.1535 0.88845-0.83492 0.75556-1.328 1.8704-1.0953 2.4769 0.59774 1.5576 0.77644 1.4169 1.7494-1.374 0.47409-1.36 0.67671-1.9625 0.49939-1.9914zm68.177 15.09c-0.77085-0.0387-1.6615 0.20449-2.6731 0.7276-2.8698 1.484-3.5664 3.3974-1.9041 5.2342 2.9908 3.3047 8.9462 0.55842 7.4311-3.4266-0.61817-1.6258-1.5691-2.4706-2.8538-2.5351zm-28.297 16.262c-0.17634 0.17634 0.21384 1.8324 0.8655 3.6794 1.4844 4.207 1.4767 4.3785-0.12101 3.0606-1.1757-0.96982-1.2172-0.91191-0.41973 0.58515 0.48681 0.91382 0.66303 1.8844 0.39062 2.1568-0.2724 0.27239 0.10533 0.49478 0.83946 0.49478 1.0766 0 1.1772 0.29287 0.52237 1.5165-0.44655 0.83435-0.79697 1.9814-0.77972 2.5489 0.0173 0.56756 0.56297 0.0517 1.2132-1.1473 0.65027-1.199 1.455-2.0116 1.7877-1.806 0.33274 0.20565 0.59642-0.98822 0.5867-2.6531-0.0145-2.4889-0.17953-2.8064-0.92678-1.7845-0.76203 1.0421-1.1294 0.57936-2.2733-2.8645-0.75-2.259-1.509-3.963-1.685-3.787zm88.598 3.8433c-0.2164 0.009-0.436 0.0551-0.6556 0.13939-1.6885 0.64791-1.4689 2.8485 0.49474 4.9385 2.0214 2.1516 3.0239 1.7377 3.0239-1.2484 0-2.2028-1.3485-3.8931-2.8631-3.8295zm12.146 1.4276c-2.9513 0-3.9505 2.0516-2.5827 5.3046 1.2522 2.978 1.801 3.0882 4.5664 0.91295 3.424-2.6932 2.2997-6.2176-1.9837-6.2176zm-149.44 1.762c-0.45889-0.0814-1.4186 0.25978-2.212 0.9344-0.61727 0.52484-0.51392 1.0946 0.36152 1.9929 0.99547 1.0214 1.3737 1.0645 2.0113 0.22977 0.43187-0.56538 1.8436-1.3725 3.1373-1.7922 2.1795-0.70715 2.1306-0.73089-0.66637-0.32628-2.0688 0.29928-2.8525 0.1685-2.4908-0.41665 0.23-0.37212 0.1344-0.57304-0.14093-0.62191zm-36.21 3.837c-2.2988-0.0593-2.9105 1.6005-1.6636 4.6107 1.1355 2.7413 1.6316 2.8608 3.4651 0.83483 2.0327-2.246 1.3354-5.105-1.3189-5.4103-0.16819-0.0193-0.32929-0.0313-0.48254-0.0352zm13.051 3.8035c-0.80934 0.0507-1.6028 0.51439-2.1415 1.5211-0.80817 1.51-0.44871 3.5143 0.95742 5.3338 1.0738 1.3895 3.5809-0.14508 4.1881-2.5642 0.63078-2.5131-1.2234-4.4022-3.004-4.2906zm-9.531 8.717c-0.50283-0.0261-0.19381 0.47648 1.0049 2.1598 2.7811 3.9055 8.518 8.1437 12.48 9.2199 4.8334 1.313 7.6244 0.89561 27.46-4.1068 9.1977-2.3196 17.845-4.2308 19.216-4.2477l2.4923-0.0306-2.7451-1.2147c-3.6846-1.6301-8.8722-1.0477-18.536 2.0802-13.181 4.2667-25.989 3.9493-31.268-0.7751-0.86275-0.77202-2.9804-1.6427-4.7059-1.9347-1.7255-0.29197-3.8082-0.72889-4.6278-0.97116-0.34524-0.10206-0.60292-0.1705-0.77053-0.17921zm101.77 16.229-2.1232 6.9421c-5.3647 17.537-3.6765 27.975 5.2374 32.387 1.7916 0.8868 4.4409 1.6126 5.8885 1.613h2.6317l-2.3667-2.2119c-4.6295-4.3244-4.7409-12.358-0.20986-15.188 2.3762-1.4839 2.0007-2.7996-1.2439-4.358-8.3234-3.9978-3.8912-11.171 7.4341-12.032l6.0248-0.45801-6.901-0.1302c-7.5418-0.14194-10.43-1.1515-12.869-4.5004l-1.5028-2.0633zm-43.041 0.0153 2.2013 2.0327c1.2103 1.1179 2.3574 2.0327 2.549 2.0327 0.89506 0 0.13367-0.81959-2.2013-2.3712l-2.549-1.6942zm8.5355 3.6074c-0.10379-0.0841-0.16932 0.25988-0.20986 1.0462-0.0699 1.3559-0.58994 1.7851-2.2472 1.855-1.6434 0.0693-1.7834 0.18263-0.58824 0.4764 2.7728 0.68155 3.5804 1.7761 2.6838 3.6334-0.81126 1.6805-0.80985 1.6798 0.6924-0.0352 0.99966-1.1412 1.8035-1.4699 2.3974-0.98035 0.6343 0.52291 0.66563 0.46448 0.10876-0.20373-1.3706-1.6446-0.86291-2.193 2.1569-2.3284l2.9412-0.13173-2.958-0.30942c-1.9102-0.19933-2.7673-0.61655-2.4204-1.178 0.34328-0.5554 0.0841-0.69396-0.71844-0.38601-0.79812 0.30625-1.3843-0.003-1.6069-0.84709-0.0937-0.35533-0.16903-0.56072-0.23131-0.6112zm-63.059 8.4739c0.4923 0.0807 0.0637 1.4447-1.1719 4.2385-3.016 6.8194-2.2709 13.206 2.9059 24.906 1.6232 3.6686 2.4753 6.863 2.4862 9.3149 0.009 2.0987-0.43731 4.1577-1.0202 4.7057-0.84942 0.79853-0.94352 0.58009-0.52083-1.2117 0.71832-3.0449-0.60326-7.361-3.6259-11.835-7.0292-10.404-7.667-11.7-7.667-15.583 0-4.4646 2.1922-9.2285 5.7368-12.466 1.5536-1.4189 2.494-2.1322 2.8768-2.0695zm13.791 4.7838c1.1562-0.0339 2.1557 0.93938 2.9871 2.9166 0.88638 2.108 1.1377 2.2561 2.0236 1.1887 1.5811-1.905 3.8801-1.469 4.9418 0.93746 0.52333 1.1862 1.5746 2.6179 2.3361 3.1816 1.9119 1.4151 1.7326 2.9004-0.56832 4.7103-1.693 1.3317-1.7974 1.6653-0.78431 2.506 2.1955 1.822-3.0347 8.3551-6.057 7.5656-0.73905-0.19305-1.7717 0.16477-2.2947 0.79501-0.58591 0.70594-1.6512 0.96963-2.7742 0.68777-1.5114-0.37932-1.8229-0.14892-1.8229 1.3449 0 0.99094-1.2296 4.3678-2.7328 7.5043-1.5032 3.1366-2.2973 5.439-1.7647 5.1178 19.934-12.025 25.303-16.706 27.299-23.806 1.4221-5.0583 2.0974-5.389 2.7068-1.325 1.4866 9.913-5.446 18.629-18.145 22.813-7.8854 2.5983-13.139 5.8604-14.899 9.2506-0.74061 1.4265-1.7866 4.1815-2.3254 6.1226-0.95306 3.434-0.98109 3.4584-1.0493 0.89764-0.1172-4.3979 2.2382-11.929 5.7996-18.544 3.5877-6.664 4.8563-9.9142 3.7975-9.73-1.908 0.33182-2.6088-0.29996-2.6088-2.3528 0-1.7733-0.30475-2.2059-1.3726-1.95-2.354 0.56411-3.3944-0.85859-3.678-5.0274-0.30364-4.4636 0.78629-6.1221 3.5493-5.3996 1.5541 0.4064 1.5732 0.35063 0.33394-1.0186-1.9006-2.1001-1.2608-5.0456 1.1673-5.3736 1.0784-0.14566 2.737-0.98473 3.6857-1.8642 0.80495-0.74627 1.555-1.1285 2.2488-1.1489zm94.634 6.6833-1.6559 1.7784c-3.4034 3.653-1.1143 11.393 4.0441 13.671 3.3112 1.4627 5.5413 0.91864 10.715-2.6133 4.8552-3.3143 5.8088-4.8696 2.9856-4.8696-2.5261 0-4.5841-2.3983-4.6706-5.4425l-0.0705-2.4631-2.0803 1.9913c-2.6362 2.5256-4.4955 2.5175-7.1553-0.0306l-2.1124-2.022zm41.412 4.8298c-2.562 0-4.5188 5.4366-2.6348 7.3205 1.4459 1.4459 7.3207-1.0274 7.3207-3.082 0-1.1514-3.4131-4.2385-4.6859-4.2385zm-134.98 1.1197c-1.4777 0-2.0156 1.2472-0.98345 2.2793 0.75459 0.75457 0.90802 0.67714 1.7402-0.87773 0.59863-1.1185 0.44624-1.4016-0.75674-1.4016zm-29.83 14.35v17.36c0.1575 0.0967 0.32403 0.18843 0.50551 0.27113 3.671 1.6726 3.2812 5.7412-0.50551 7.5426v3.7606c0.92331 1.3786 0.91724 2.6556 0 3.6825v6.9268c13.397-8.55 13.715-17.08 2.9687-34.69-0.8994-1.47-1.8948-3.09-2.9687-4.85zm161.01 0.57748c-2.5558 0.2785-4.411 4.4629-2.3269 6.5469 2.051 2.0509 7.6869 0.50869 7.6869-2.1032 0-1.5482-1.8893-3.4718-4.231-4.3074-0.38426-0.13713-0.76386-0.17611-1.1289-0.13633zm-61.446 20.188c-1.7109-0.065-3.4172 2.7817-2.6057 5.3383 0.40314 1.2701 0.78318 1.4145 2.0037 0.76131 1.746-0.93438 2.8588-4.448 1.757-5.5497-0.36441-0.3644-0.76019-0.53491-1.155-0.54992zm-11.584 1.4169c-4.5774 0-6.078 3.582-2.5904 6.1839 2.7685 2.0654 3.0429 2.0482 4.5787-0.29564 1.9234-2.9353 0.92611-5.8882-1.9884-5.8882zm100.23 1.6053c-0.0853 0.043-0.29399 0.21801-0.62806 0.51468-0.7082 0.62881-1.5196 0.69843-2.4326 0.20986-0.98886-0.52917-1.4949-0.40976-1.8167 0.4289-0.24527 0.63914-0.11487 1.1626 0.28947 1.1626 0.40433 0 0.5098 0.58731 0.23433 1.3051-0.31133 0.81135-0.1876 1.1111 0.32627 0.79347 0.45793-0.28295 1.2629 0.54638 1.8061 1.8581 0.53946 1.3024 1.1223 2.2264 1.296 2.0526 0.1738-0.17377-0.1188-1.2705-0.64954-2.4356-0.79653-1.7482-0.76726-2.2428 0.16694-2.8338 0.62246-0.39386 0.82366-0.72133 0.44733-0.72761-0.3764-0.007-0.2158-0.62988 0.3554-1.3848 0.54406-0.71916 0.74566-1.0153 0.60353-0.94359zm-150.99 0.44269c-0.16619 0.0146-0.26348 0.0952-0.26348 0.24815 0 0.4077-1.3235 0.59466-2.9412 0.41359l-2.9412-0.32933 2.5888 0.68011c1.4238 0.37386 2.8057 0.89696 3.0714 1.1626 0.62868 0.62866 1.1861 0.59463 2.3484-0.144 0.68472-0.43513 0.52087-0.87134-0.58823-1.564-0.52847-0.33002-0.99753-0.49158-1.2745-0.4672zm162.78 0.94053c-0.18633 0.0887-0.3732 0.17718-0.576 0.25428l-1.9102 0.72608 1.754 1.8673c0.28967 0.30837 0.53113 0.61267 0.7322 0.91295v-3.7606zm-161.08 2.1093 1.901 2.1568c1.0458 1.1862 2.0164 2.1568 2.1569 2.1568 0.61512 0 0.11487-0.63548-1.901-2.4126l-2.1569-1.901zm34.113 0.0123c-0.48916 0.0419-1.026 0.28504-1.5793 0.78582-1.9959 1.8062-1.9616 3.1072 0.1348 5.2035 1.6265 1.6265 1.7264 1.6351 2.7451 0.24203 2.0576-2.8138 0.81918-6.4129-1.3006-6.2314zm-13.151 4.1114c-0.8905-0.0641-1.8287 0.44657-2.5398 1.7754-0.87211 1.6295-0.6154 2.5078 1.4262 4.8849 1.5897 1.851 2.376 1.729 3.4053-0.53001 1.3997-3.072-0.33258-5.9893-2.2917-6.1303zm140.12 1.2101c-0.377 0.42207-0.90587 0.80331-1.5885 1.1305-1.1311 0.54214-2.6614 1.9077-3.4007 3.036-1.1163 1.7036-1.7727 1.9823-3.8695 1.6421-1.9581-0.31772-2.7459-0.0555-3.5095 1.1672-0.68446 1.0959-1.5643 1.4662-2.8877 1.2132-1.4695-0.28091-1.9041-0.0276-1.9041 1.1106 0 0.24858-0.0988 0.75442-0.2374 1.3572h10.838c0.34213-0.18637 0.68573-0.37674 1.0233-0.55298 2.0504-1.0704 3.8866-2.1241 5.5361-3.177v-6.9268zm-184.94 8.5904c-1.892-0.0401-3.4228 0.2438-4.7687 0.83023l-2.7451 1.1948 1.587 0.0413h16.253c-4.4241-1.3328-7.727-2.0114-10.326-2.0664z"/>
</pattern>
</defs>
<rect id="rect5272" height="1e3" width="1600" y="0" x="0" fill="url(#pattern5274)"/>
</svg>
