<?xml version="1.0" encoding="UTF-8" standalone="no"?>
<!-- Created with Inkscape (http://www.inkscape.org/) -->

<svg
   width="210mm"
   height="297mm"
   viewBox="0 0 210 297"
   version="1.1"
   id="svg18537"
   inkscape:version="1.2.1 (9c6d41e410, 2022-07-14)"
   sodipodi:docname="icono_prueba_tarea.svg"
   xmlns:inkscape="http://www.inkscape.org/namespaces/inkscape"
   xmlns:sodipodi="http://sodipodi.sourceforge.net/DTD/sodipodi-0.dtd"
   xmlns="http://www.w3.org/2000/svg"
   xmlns:svg="http://www.w3.org/2000/svg">
  <sodipodi:namedview
     id="namedview18539"
     pagecolor="#ffffff"
     bordercolor="#000000"
     borderopacity="0.25"
     inkscape:showpageshadow="2"
     inkscape:pageopacity="0.0"
     inkscape:pagecheckerboard="0"
     inkscape:deskcolor="#d1d1d1"
     inkscape:document-units="mm"
     showgrid="false"
     inkscape:zoom="0.6639443"
     inkscape:cx="117.47973"
     inkscape:cy="462.38818"
     inkscape:window-width="1366"
     inkscape:window-height="699"
     inkscape:window-x="0"
     inkscape:window-y="32"
     inkscape:window-maximized="1"
     inkscape:current-layer="layer1" />
  <defs
     id="defs18534">
    <inkscape:path-effect
       effect="spiro"
       id="path-effect26922"
       is_visible="true"
       lpeversion="1" />
  </defs>
  <g
     inkscape:label="Capa 1"
     inkscape:groupmode="layer"
     id="layer1">
    <rect
       style="fill:#ffffff;fill-opacity:1;stroke:#000000;stroke-width:1.39572;stroke-linejoin:round;stroke-dasharray:none"
       id="rect26803"
       width="138.60429"
       height="178.60428"
       x="30.697861"
       y="30.697861" />
    <path
       style="fill:#ffffff;fill-opacity:0.00134487;stroke:#000000;stroke-width:1;stroke-linejoin:round;stroke-dasharray:none"
       d="M 55.713088,31.49907 55.464123,209.83288"
       id="path26920"
       inkscape:path-effect="#path-effect26922"
       inkscape:original-d="M 55.713088,31.49907 55.464123,209.83288" />
    <ellipse
       style="fill:#ffffff;fill-opacity:0.00134487;stroke:#000000;stroke-width:1;stroke-linejoin:round;stroke-dasharray:none"
       id="path26978"
       cx="42.43792"
       cy="64.650757"
       rx="5.5604253"
       ry="5.7898245" />
    <ellipse
       style="fill:#ffffff;fill-opacity:0.00134487;stroke:#000000;stroke-width:1;stroke-linejoin:round;stroke-dasharray:none"
       id="ellipse26980"
       cx="42.43792"
       cy="175.22551"
       rx="5.5604253"
       ry="5.7898245" />
    <path
       style="fill:#000000;fill-opacity:0.943724;stroke:#000000;stroke-width:0;stroke-linejoin:round;stroke-dasharray:none"
       id="path26763"
       d="m 66.564269,53.537154 c 0.757119,-0.692616 1.60706,-1.27523 2.463386,-1.793453 0.903463,-0.59798 1.816318,-1.175429 2.727989,-1.756984 0.940583,-0.608582 1.87887,-1.22736 2.830647,-1.814089 0.311089,-0.196943 0.614362,-0.320781 0.965706,-0.190105 0.105826,0.03936 0.399226,0.225458 0.302242,0.162753 -3.141662,-2.031364 -3.751269,-2.735168 -2.637326,-1.544626 0.557088,0.773921 1.066369,1.60486 1.542066,2.449192 0.309227,0.710337 0.795998,1.246354 1.315605,1.749875 1.575021,1.236435 3.324794,2.629819 5.262563,3.013962 0.924068,0.08791 1.864352,0.248839 2.788165,0.104986 0.83455,-0.09571 1.521217,-0.66494 2.243062,-1.097595 0.798913,-0.451106 1.418826,-1.189587 2.089551,-1.844383 0.707446,-0.717625 1.381101,-1.470307 2.115111,-2.152183 0.610851,-0.626165 1.309262,-1.109143 1.979284,-1.637946 0.421462,-0.232846 0.87574,-0.685688 1.363343,-0.59046 1.124031,0.613502 2.943648,1.703596 -2.128931,-1.435883 -0.153205,-0.09483 0.28474,0.230714 0.419987,0.356713 0.368579,0.343379 0.41931,0.431837 0.737016,0.822302 0.501238,0.627349 0.939525,1.317538 1.449974,1.934964 0.560893,0.5916 1.027542,1.28519 1.481777,1.984195 0.39046,0.636051 0.862322,1.198586 1.398335,1.671174 0.773069,0.610157 1.451825,1.358387 2.219065,1.975991 1.835544,1.289943 3.565114,2.65428 5.677594,3.073241 1.2486,-0.04788 2.35366,-0.788923 3.39698,-1.509695 1.4665,-1.105481 2.99157,-2.104664 4.44703,-3.230271 0.93008,-0.649365 1.79858,-1.406883 2.74092,-2.032721 0.68207,-0.39985 1.39884,-0.694156 2.10059,-1.040235 0.61942,-0.306344 1.23869,-0.56062 1.90434,-0.695608 0.58922,-0.100763 1.18598,-0.10417 1.78028,-0.108106 -0.26436,-0.336203 1.1909,0.650445 0.96343,0.507721 -0.9395,-0.589458 -1.84784,-1.244435 -2.79584,-1.815516 -0.1563,-0.09417 0.27863,0.249566 0.41361,0.380443 0.13974,0.135491 0.27354,0.27894 0.41032,0.418408 0.79,0.831048 1.53001,1.719099 2.24674,2.632885 0.58671,0.742495 1.22933,1.418419 1.88545,2.07734 1.42307,1.547234 3.13893,2.420435 4.86044,3.562332 0.82132,0.427776 1.68224,0.408871 2.54654,0.20452 1.27497,-0.365432 2.34469,-1.135138 3.24923,-2.212375 0.8823,-1.087026 1.65235,-2.280911 2.49349,-3.406943 0.56385,-0.776904 1.13598,-1.49764 1.91209,-1.987568 0.63158,-0.465327 1.28092,-0.850218 2.00466,-1.080358 -0.1353,-0.460229 0.68571,0.306718 0.5291,0.20859 -1.0259,-0.642878 -2.01475,-1.362246 -3.03954,-2.007425 -0.29509,-0.185766 0.51079,0.504351 0.75838,0.766557 1.04311,1.252058 2.09266,2.496254 3.22926,3.636174 0.80905,0.839875 1.69397,1.584902 2.46225,2.474964 0.60143,0.823654 1.2072,1.638575 1.8618,2.407131 1.28714,1.475519 2.9269,3.331221 4.79918,3.163904 1.11876,-0.299936 2.03207,-1.156283 2.91245,-1.963259 0.93351,-0.777719 1.7017,-1.723329 2.42908,-2.7433 0.45164,-0.590788 0.84721,-1.234099 1.28466,-1.838204 0,0 -3.23967,-2.232628 -3.23967,-2.232628 v 0 c -0.41433,0.620617 -0.80035,1.267552 -1.25003,1.855969 -0.70849,0.995714 -1.46257,1.912757 -2.36955,2.676811 -0.82426,0.743027 -1.71442,1.597859 -2.80309,1.669073 -1.2043,-0.314873 -3.3523,-2.075538 2.44935,1.806053 0.14683,0.09824 -0.17782,-0.07921 -0.49059,-0.432918 -0.0873,-0.09878 -0.16491,-0.208412 -0.24739,-0.31262 -0.69699,-0.72248 -1.30143,-1.549394 -1.8861,-2.39278 -0.73055,-0.956973 -1.65047,-1.678478 -2.46995,-2.53069 -1.15011,-1.112349 -2.23485,-2.31213 -3.22957,-3.610088 -1.2696,-1.46328 -2.93198,-3.639379 -4.80537,-3.049083 -0.72611,0.287987 -1.39088,0.707974 -2.04524,1.168442 -0.78076,0.558842 -1.37245,1.315534 -1.94902,2.134436 -0.81421,1.137495 -1.59232,2.306006 -2.46766,3.384617 -0.87772,0.995977 -1.91266,1.707496 -3.13832,1.973832 -0.84461,0.116584 -1.66714,0.04155 -2.422,-0.452291 5.64588,3.793293 2.6113,1.990381 1.55877,0.779152 -0.68655,-0.614816 -1.31308,-1.312151 -1.91833,-2.03167 -0.74649,-0.89221 -1.44515,-1.839438 -2.24738,-2.671111 -1.54359,-1.664822 -3.38842,-3.335066 -5.50256,-3.672538 -0.60768,0.01283 -1.21784,0.03818 -1.81524,0.179273 -0.67471,0.176529 -1.31397,0.458246 -1.94953,0.77123 -0.70607,0.360486 -1.43872,0.651208 -2.10986,1.099048 -0.92533,0.657076 -1.79892,1.402932 -2.71036,2.084823 -1.43786,1.133372 -2.93779,2.159661 -4.41903,3.214179 -1.01165,0.644177 -2.1106,1.362873 -3.30863,1.205697 -1.52767,-0.391543 -4.751743,-2.392921 0.81322,1.111412 -0.80402,-0.552687 -1.45421,-1.323259 -2.2153,-1.947435 -0.54471,-0.438273 -1.048879,-0.928457 -1.437906,-1.558854 -0.475642,-0.683021 -0.8895,-1.435156 -1.453141,-2.030488 -0.545034,-0.593066 -0.985785,-1.284983 -1.489508,-1.922782 -1.378396,-1.926473 -3.418629,-3.541738 -5.546137,-3.965092 -0.533506,0.133347 -1.005754,0.46663 -1.46556,0.797149 -0.68127,0.526387 -1.34646,1.075419 -1.975532,1.684536 -0.732519,0.688324 -1.405167,1.450695 -2.12551,2.155481 -0.653463,0.637022 -1.259138,1.3501 -2.050601,1.763585 -0.684566,0.429369 -1.357238,0.908711 -2.159524,0.956994 -0.907175,0.05596 -1.8234,-0.03246 -2.717774,-0.20992 -0.381139,-0.113205 -0.736054,-0.245638 -1.099124,-0.421201 -0.111571,-0.05395 -0.436701,-0.238159 -0.333214,-0.165903 2.566954,1.792321 3.997154,2.562772 2.657457,1.830498 -0.487169,-0.517236 -1.079928,-0.922456 -1.375823,-1.637089 -0.441813,-0.889065 -1.028129,-1.679115 -1.517756,-2.532837 -1.109338,-1.579314 -0.356632,-0.600408 -3.804786,-2.779348 -0.168292,-0.106343 -0.551208,-0.07424 -0.725711,-0.02964 -0.27452,0.07018 -0.455766,0.202303 -0.703304,0.349399 -0.935119,0.611565 -1.867872,1.227436 -2.807581,1.828944 -0.920432,0.568857 -1.834132,1.149023 -2.741032,1.74612 -0.852091,0.548774 -1.678243,1.152164 -2.502887,1.754159 0,0 3.170253,2.39705 3.170253,2.39705 z" />
    <path
       style="fill:#000000;fill-opacity:0.943724;stroke:#000000;stroke-width:0;stroke-linejoin:round;stroke-dasharray:none"
       id="path26765"
       d="m 67.215325,75.596525 c 1.151589,-1.306782 2.44606,-2.416449 3.855779,-3.321175 0.912086,-0.580518 1.851418,-1.350919 2.929826,-1.364156 0.413131,0.09159 0.773257,0.328023 1.132513,0.56735 0.155365,0.103496 0.620546,0.41575 0.463889,0.314874 -2.790756,-1.796999 -3.621332,-2.493929 -2.329746,-1.44705 0.824447,0.719767 1.70974,1.335354 2.591561,1.954821 3.002631,2.230443 3.723871,2.984747 6.677352,3.19442 1.872386,0.231586 3.636644,-0.410112 5.347312,-1.211848 1.367512,-0.721431 2.649642,-1.641543 3.816895,-2.732062 0.940971,-0.972273 1.834836,-2.002556 2.900235,-2.79534 0.45888,-0.312302 1.109338,-1.140684 1.671726,-0.745695 -5.289047,-3.605426 -3.111817,-2.23304 -2.097366,-0.950425 0.56565,0.715172 1.085308,1.483045 1.619233,2.229344 0.884423,1.31599 1.768273,2.627275 2.73892,3.860322 1.514296,1.704083 3.416446,3.150595 5.530096,3.531649 1.74487,0.349176 3.51685,0.478472 5.28563,0.449831 1.77967,-0.04182 3.38214,-0.808542 4.88214,-1.852561 1.13553,-0.942607 2.25329,-1.908651 3.4044,-2.826331 1.19799,-0.912005 2.52096,-1.586518 3.79853,-2.338196 1.26443,-0.741148 2.58401,-1.208378 3.98077,-1.457196 1.03461,-0.131224 2.08047,-0.299701 3.09358,0.03501 0.15541,0.06984 0.31582,0.126388 0.46623,0.209506 0.17691,0.09776 0.68447,0.442539 0.5134,0.33183 -3.2906,-2.129398 -3.27369,-2.263705 -1.99305,-1.181106 0.20624,0.174344 0.41069,0.351496 0.6145,0.529599 0.19934,0.174208 0.39661,0.351542 0.59493,0.527309 0.95152,0.856347 1.83769,1.802015 2.79767,2.646049 1.5842,1.186783 -0.42751,-0.309838 3.9352,2.648924 0.94294,0.639495 -3.81041,-2.479889 -2.84595,-1.884555 3.72682,2.300459 2.45657,1.979894 4.75796,2.724497 1.22542,0.369204 2.48221,0.524998 3.74267,0.614359 0.928,-0.0021 1.71609,-0.543159 2.4425,-1.154797 0.69516,-0.707452 1.43231,-1.355565 2.13754,-2.049731 0.85033,-0.831218 1.81543,-1.485713 2.78516,-2.113384 0.69823,-0.515983 1.44809,-0.916308 2.26368,-1.09701 0.11023,-0.0147 0.48795,-0.07081 0.59962,-0.06272 0.84302,0.06106 4.94346,3.031542 -1.79641,-1.375049 0.92752,0.73619 1.80107,1.555974 2.66195,2.391173 1.37388,1.42782 2.94234,2.923196 4.79898,3.267552 0.96716,0.05884 1.92684,-0.379665 2.81593,-0.779852 1.0195,-0.394926 1.98325,-0.942702 2.95713,-1.461596 0,0 -3.10062,-2.364956 -3.10062,-2.364956 v 0 c -0.96264,0.527584 -1.93277,1.032911 -2.94308,1.430184 -0.86606,0.353534 -1.8039,0.769651 -2.7312,0.531893 -1.17136,-0.461201 -3.21597,-2.030357 2.5007,1.778124 0.0888,0.05919 -0.17366,-0.126559 -0.2557,-0.197598 -0.25286,-0.218918 -0.33437,-0.329062 -0.56637,-0.590481 -0.88731,-0.814479 -1.7503,-1.66403 -2.65404,-2.454929 -1.22365,-0.811686 -2.43755,-1.643235 -3.67097,-2.435048 -0.53528,-0.34365 -1.1426,-0.298522 -1.71697,-0.151116 -0.82087,0.257513 -1.57425,0.704433 -2.2921,1.227517 -0.9777,0.66305 -1.96152,1.325257 -2.83045,2.172255 -0.70331,0.679476 -1.42494,1.333629 -2.12895,2.011675 -0.69292,0.545318 -1.41295,0.991845 -2.28103,0.926626 -1.24274,-0.09818 -2.48217,-0.27673 -3.68178,-0.680202 -0.20259,-0.07166 -0.40728,-0.135915 -0.60779,-0.214971 -0.17236,-0.06794 -0.66415,-0.337881 -0.51014,-0.225783 0.91594,0.666604 3.74481,2.512087 2.80328,1.894708 -1.19763,-0.785299 -2.38881,-1.583884 -3.5716,-2.398513 -0.81664,-0.562446 4.30897,2.832428 2.46336,1.661147 -1.00649,-0.80023 -1.88692,-1.781033 -2.84512,-2.653537 -2.02764,-1.819771 -4.14275,-3.69967 -6.61076,-4.614652 -1.04572,-0.20716 -2.10708,-0.04729 -3.15046,0.124993 -1.4134,0.298279 -2.75235,0.811215 -4.03325,1.572313 -1.29431,0.753905 -2.62962,1.441774 -3.83166,2.382742 -1.14209,0.914681 -2.25106,1.877766 -3.38513,2.805035 -1.46704,0.987494 -3.00367,1.706485 -4.73454,1.69687 -1.77948,-0.0047 -3.56082,-0.159485 -5.30672,-0.573814 -1.455009,-0.398864 -2.899653,-1.61627 1.90146,1.604318 0.11225,0.07531 -0.21841,-0.162078 -0.32658,-0.244905 -0.44234,-0.338666 -0.26603,-0.18845 -0.68507,-0.628244 -0.98478,-1.239017 -1.93898,-2.502242 -2.796873,-3.865751 -0.531464,-0.74123 -1.043368,-1.503464 -1.581207,-2.238295 -0.14451,-0.197439 -0.298272,-0.385633 -0.44697,-0.578896 -0.115013,-0.149484 -0.196521,-0.344689 -0.344167,-0.449344 -1.157396,-0.820368 -2.366179,-1.540234 -3.549264,-2.310352 -0.701387,0.04443 -1.249814,0.614144 -1.801141,1.06507 -1.040064,0.84374 -1.946688,1.86678 -2.893034,2.841474 -1.150854,1.044175 -2.391015,1.95682 -3.729946,2.649236 -1.690568,0.775214 -3.424811,1.312876 -5.262055,1.040929 -0.679368,-0.07792 -1.348111,-0.141993 -1.996523,-0.407106 -0.162659,-0.06651 -0.623987,-0.336131 -0.477333,-0.231237 1.087815,0.778068 3.975024,2.652598 2.235546,1.52084 -0.870594,-0.625978 -1.77045,-1.204758 -2.586648,-1.925246 -1.550246,-1.250737 -0.476683,-0.401969 -4.050025,-2.837912 -0.541038,-0.368824 -1.112503,-0.711005 -1.757179,-0.691015 -1.087737,0.218053 -2.023585,0.909223 -2.952129,1.566192 -1.426975,0.964235 -2.732079,2.119208 -3.986238,3.361447 0,0 3.215551,2.271718 3.215551,2.271718 z" />
    <path
       style="fill:#000000;fill-opacity:0.943724;stroke:#000000;stroke-width:0;stroke-linejoin:round;stroke-dasharray:none"
       id="path26767"
       d="m 64.586539,95.788646 c 2.162023,-1.329212 4.430428,-2.369067 6.766249,-3.208475 2.02275,-0.526954 4.258911,-1.357389 6.359528,-1.261654 0.298369,0.01356 0.592029,0.0904 0.888045,0.135633 0.265467,0.105063 0.53775,0.189498 0.796404,0.315111 0.244189,0.118589 0.940092,0.56392 0.708421,0.415674 -0.853596,-0.546214 -1.685991,-1.143471 -2.574524,-1.609804 -0.2055,-0.107818 0.344887,0.33717 0.503233,0.522732 0.40791,0.478041 0.482299,0.650274 0.805782,1.190139 0.471255,1.078385 0.908979,2.140586 1.63056,3.027322 3.14051,2.97148 5.537322,3.47596 9.242098,3.4207 2.866953,-0.23099 5.580561,-1.31129 8.231257,-2.518496 1.756614,-0.83038 3.391068,-1.923603 5.232078,-2.489805 0.88186,-0.149194 1.82519,-0.504742 2.72786,-0.33393 0.41115,0.07783 0.64803,0.262184 1.00846,0.47911 -5.12455,-3.375847 -2.85325,-2.040119 -1.8831,-1.014696 0.45914,0.485303 0.87713,1.030737 1.2977,1.559125 1.73748,1.985649 3.85368,3.636682 6.15994,4.596122 1.78243,0.59793 3.52584,0.12222 5.26922,-0.39176 2.59001,-0.83687 5.00339,-2.23245 7.40324,-3.605406 1.7277,-1.10814 3.48125,-2.15904 5.34328,-2.933835 0.52045,-0.203389 1.02758,-0.411188 1.56755,-0.169456 0.16922,0.07575 0.63978,0.395886 0.47925,0.298145 -2.87386,-1.749969 -3.31961,-2.422127 -1.99669,-0.867699 1.40005,1.978361 2.78068,3.964186 4.27944,5.846511 1.70181,2.10198 4.00946,4.363636 6.51575,4.698456 1.57045,-0.1209 2.91498,-1.21626 4.2595,-2.066166 1.89492,-1.14953 3.80197,-2.26657 5.75499,-3.279842 1.29527,-0.706825 2.15706,-0.950486 3.5453,-0.559616 1.23549,0.530324 2.50822,0.896348 3.81332,1.098058 1.15985,0.0857 2.22946,-0.31141 3.24844,-0.902463 0.73992,-0.468636 1.34273,-1.15366 1.88516,-1.888722 0.0732,-0.12064 0.14613,-0.241291 0.2192,-0.361932 0,0 -3.24206,-2.202034 -3.24206,-2.202034 v 0 c -0.0664,0.1087 -0.13291,0.217435 -0.19937,0.326144 -0.51757,0.688331 -1.07897,1.336995 -1.79346,1.75179 -0.96898,0.554339 -2.00283,0.855306 -3.09374,0.707247 -1.29948,-0.240298 -2.552,-0.663491 -3.80536,-1.120828 -1.42795,-0.27411 -2.34421,0.06835 -3.62841,0.82318 -1.93725,1.066776 -3.86471,2.157364 -5.76846,3.301828 -1.29729,0.8063 -2.64625,1.87221 -4.17734,1.7794 -1.2421,-0.36628 -3.29198,-1.81522 1.65755,1.381516 0.20565,0.13281 -0.39874,-0.29199 -0.58252,-0.46211 -0.4176,-0.386566 -0.87745,-0.964926 -1.24316,-1.400296 -1.51521,-1.85528 -2.92046,-3.803958 -4.25737,-5.832833 -1.48081,-1.991082 -0.57902,-0.93865 -4.31708,-3.434883 -0.30622,-0.204502 -0.7299,-0.26465 -1.0761,-0.22278 -0.34056,0.04123 -0.80288,0.256284 -1.11177,0.3815 -1.8344,0.846145 -3.5745,1.915555 -5.30157,3.017554 -2.36904,1.389603 -4.76312,2.784497 -7.35841,3.524786 -1.73661,0.452876 -3.48701,0.848226 -5.2154,0.109692 -1.34127,-0.70405 -1.39242,-0.756074 2.15831,1.538954 0.16914,0.10937 -0.31746,-0.25682 -0.47509,-0.38701 -0.52867,-0.43663 -1.02883,-0.90855 -1.49558,-1.432194 -1.76434,-2.33068 -3.00408,-3.414841 -5.75978,-4.875209 -1.32695,-0.568308 -2.50828,-0.248203 -3.8508,0.124951 -1.822546,0.621511 -3.445859,1.732484 -5.195858,2.57155 -2.609451,1.21114 -5.289289,2.273408 -8.128717,2.408665 -1.31804,-0.0215 -2.598279,-0.09691 -3.890414,-0.430722 -0.329299,-0.08511 -1.232586,-0.567879 -0.974187,-0.317636 0.593358,0.574614 3.683945,2.622565 1.980532,1.403455 -0.790239,-0.815093 -1.264573,-1.840881 -1.685921,-2.954148 -1.464264,-2.697713 -3.938317,-4.298874 -6.590634,-5.07455 -2.46059,-0.183712 -4.87228,0.611027 -7.227819,1.346938 -2.384479,0.862914 -4.693804,1.921653 -6.972763,3.103147 0,0 3.13581,2.405833 3.13581,2.405833 z" />
    <path
       style="fill:#000000;fill-opacity:0.943724;stroke:#000000;stroke-width:0;stroke-linejoin:round;stroke-dasharray:none"
       id="path26769"
       d="m 65.84184,122.75483 c 1.931362,-1.31708 3.936891,-2.44074 6.04344,-3.32841 1.331308,-0.47109 2.733541,-1.13402 4.151733,-0.72668 0.639231,0.1836 1.510351,0.72945 2.079074,1.05319 1.78304,1.027 3.438838,2.34582 5.254463,3.30014 1.353684,0.71152 1.783181,0.79581 3.216576,1.28834 3.22678,0.9248 6.580161,0.90287 9.8259,0.11014 0.626011,-0.15289 1.240638,-0.36223 1.860961,-0.54338 3.359663,-1.10388 6.459863,-2.98416 9.661013,-4.55401 1.19989,-0.44365 2.57171,-1.47959 3.89851,-1.02577 0.25788,0.0882 0.95353,0.57459 0.71763,0.42554 -0.80258,-0.5071 -1.61192,-0.99987 -2.41788,-1.49981 1.13382,0.85871 1.85913,2.32406 3.03579,3.11537 1.39326,0.93697 2.79436,1.86702 4.25267,2.66161 0.43416,0.23654 0.92987,0.27699 1.39482,0.4155 3.40889,0.78117 6.71418,-0.19649 9.91044,-1.51858 2.18101,-1.03948 4.24453,-2.3639 6.35475,-3.57321 0.40408,-0.10196 0.53922,-0.23016 0.91932,-5.7e-4 0.13599,0.0821 0.49316,0.41692 0.3564,0.33642 -3.5606,-2.09588 -3.37597,-2.50002 -2.06604,-0.88956 1.27079,1.42841 3.0364,2.35073 4.56971,3.19024 0.56248,0.30797 2.36597,-0.1076 2.92532,-0.22008 1.79439,-0.47229 3.51525,-1.23317 5.27274,-1.8483 0.34922,-0.12223 0.6937,-0.27712 1.05471,-0.33875 0.2985,-0.0508 0.6035,0.005 0.90525,0.005 2.2454,1.11444 -1.09517,-0.90415 -1.72494,-1.1446 -0.29662,-0.11327 0.44967,0.5019 0.65212,0.7763 0.54005,0.73189 0.95512,1.58983 1.43274,2.37513 1.41711,1.94865 3.54983,3.51299 5.7613,3.02024 0.59377,-0.1323 1.32703,-0.44336 1.89219,-0.66286 1.67132,-0.68084 3.30323,-1.48128 4.96019,-2.20372 0.18149,-0.0938 0.36294,-0.18771 0.54439,-0.28157 0,0 -3.10404,-2.37484 -3.10404,-2.37484 v 0 c -0.17362,0.091 -0.34724,0.18207 -0.52086,0.2731 -1.62666,0.75691 -3.23174,1.57781 -4.89743,2.22056 -0.63139,0.22111 -1.21365,0.46297 -1.87201,0.55408 -0.2622,0.0363 -0.52891,0.0479 -0.79201,0.0219 -0.22561,-0.0224 -0.84483,-0.32303 -0.66389,-0.16606 4.83422,4.19431 2.856,2.12639 2.0834,1.29031 -0.51663,-0.7862 -0.92756,-1.64648 -1.44598,-2.43002 -1.2666,-1.91448 -3.21147,-3.35383 -5.28239,-3.73838 -0.31089,0.0328 -0.62701,0.0252 -0.93266,0.0986 -0.35325,0.0846 -0.69015,0.24322 -1.03307,0.37262 -1.73458,0.65462 -3.45458,1.38215 -5.2538,1.77626 -0.86949,0.12553 -1.28507,0.2495 -2.1392,0.14801 -0.24927,-0.0296 -0.93467,-0.35814 -0.73458,-0.18422 0.81253,0.70639 1.74187,1.21372 2.61407,1.81819 0.15291,0.10594 -0.31171,-0.20204 -0.45619,-0.32269 -0.13116,-0.10946 -0.24541,-0.24366 -0.36811,-0.36549 -1.58109,-1.89559 -0.74731,-1.04882 -4.29278,-3.48447 -0.49036,-0.33686 -0.97228,-0.21106 -1.46297,0.0387 -2.02707,1.28787 -4.03939,2.62024 -6.18707,3.63122 -3.17466,1.28939 -6.45566,2.19327 -9.81544,1.28619 -1.86642,-0.65437 -2.23125,-0.94549 0.57732,0.99477 0.29593,0.20444 -0.57337,-0.4454 -0.83707,-0.70189 -0.76884,-0.74781 -1.37665,-1.70088 -2.17023,-2.4194 -1.29722,-0.89404 -2.56908,-1.83891 -3.89167,-2.68211 -0.2458,-0.15671 -0.52179,-0.25662 -0.79906,-0.30848 -1.36888,-0.25596 -2.6716,0.7602 -3.89282,1.26266 -3.15082,1.62107 -6.239136,3.45511 -9.573866,4.54061 -1.576363,0.44957 -2.133593,0.66809 -3.761462,0.88856 -2.628085,0.35594 -5.281528,0.14698 -7.836114,-0.6535 -1.501266,-0.55282 -1.779298,-0.59097 -3.194936,-1.36293 -1.822852,-0.99399 -3.499971,-2.31293 -5.311378,-3.33305 -0.761657,-0.40199 -1.365301,-0.79434 -2.19617,-0.96382 -1.447176,-0.29518 -2.843549,0.42104 -4.18321,0.92344 -2.137893,0.933 -4.179629,2.08624 -6.226591,3.25529 0,0 3.158977,2.38365 3.158977,2.38365 z" />
    <path
       style="fill:#000000;fill-opacity:0.943724;stroke:#000000;stroke-width:0;stroke-linejoin:round;stroke-dasharray:none"
       id="path26771"
       d="m 66.150528,148.35134 c 1.764913,-1.61625 3.821285,-2.73907 5.786867,-3.98637 1.282689,-0.64602 3.317871,-2.56918 4.740825,-2.65565 0.172621,-0.011 0.34176,0.0602 0.512644,0.0902 1.724164,1.10055 -1.398523,-0.9664 -2.131005,-1.37626 -0.264275,-0.14786 0.47383,0.40073 0.704111,0.61102 0.965223,0.88133 1.891315,1.79381 2.882127,2.63927 2.642793,2.00604 5.382783,3.89128 8.522336,4.54846 1.326012,0.27756 1.735945,0.23723 3.078909,0.29014 2.924978,-0.0969 5.644934,-1.29269 8.245249,-2.73918 1.271066,-0.5935 2.908289,-2.18858 4.373129,-1.91155 0.27287,0.0516 0.52277,0.20799 0.78416,0.31198 0.27463,0.19425 1.11683,0.73747 0.82391,0.58276 -0.75076,-0.39655 -1.40509,-1.05778 -2.20131,-1.31031 -0.39052,-0.12384 0.62387,0.59596 0.92668,0.90606 0.9065,0.92832 1.75647,1.93099 2.62967,2.90013 0.27176,0.26884 0.52892,0.55864 0.81528,0.8065 0.29948,0.25923 0.61283,0.49893 0.9387,0.71167 2.22094,1.45002 3.18292,2.50946 5.28655,2.93558 1.10834,0.22452 1.29287,0.13794 2.41229,0.0661 2.71805,-0.51805 5.21754,-1.9204 7.72419,-3.17212 1.7883,-0.79107 3.47515,-2.10404 5.42567,-2.23657 0.62347,0.11003 0.50212,0.0223 1.04807,0.3754 0.17042,0.11025 0.66887,0.46523 0.49623,0.35974 -0.89785,-0.54871 -1.76197,-1.17102 -2.67302,-1.69009 -0.19753,-0.11252 0.34686,0.31348 0.52345,0.46539 0.1857,0.15973 0.37552,0.31295 0.56326,0.46943 2.05742,1.44716 4.03062,3.18783 6.52264,3.02968 0.76819,-0.0487 1.35257,-0.23784 2.10031,-0.43084 2.02016,-0.67879 3.80176,-2.00552 5.68347,-3.05307 0.53553,-0.20823 0.63555,-0.33081 1.18135,-0.25799 0.86728,0.11574 5.38396,3.31513 -1.47904,-1.16244 1.49073,1.11672 3.04942,2.84981 4.92692,2.8008 0.47101,-0.0122 0.72107,-0.11209 1.18164,-0.2383 1.34101,-0.44581 2.54306,-1.30797 3.90491,-1.66997 0.41611,-0.048 0.83469,0.0491 1.21071,0.26398 0.1059,0.0605 0.39848,0.29287 0.29544,0.22608 -2.34295,-1.51861 -3.97744,-2.6656 -2.68343,-1.76035 3.55344,2.46224 3.16673,3.00409 5.93805,1.20105 1.10714,-0.81879 2.13617,-1.77275 3.23117,-2.6162 0,0 -3.1392,-2.31088 -3.1392,-2.31088 v 0 c -1.06674,0.86295 -2.09086,1.80316 -3.20269,2.5865 -0.49925,0.30531 -1.01456,0.67018 -1.57756,0.80045 -1.20193,0.27819 -3.97107,-2.46488 2.27144,1.89942 -1.67885,-1.08422 -3.35358,-3.10588 -5.41378,-2.72297 -1.325,0.46182 -2.53636,1.27723 -3.88792,1.65119 -0.55803,0.10539 -1.05666,0.18709 -1.61298,0.01 -0.15862,-0.0505 -0.60151,-0.30032 -0.46266,-0.19854 4.28186,3.13863 3.54808,2.53876 2.51062,1.6658 -1.18311,-0.81013 -2.36043,-1.63156 -3.54935,-2.43033 -0.88513,-0.59471 -1.80954,-0.61389 -2.7217,-0.0717 -1.82312,1.09316 -3.5856,2.39511 -5.59554,2.99001 -1.31214,0.29481 -2.53574,0.47136 -3.84176,0.016 -0.27659,-0.0964 -1.04561,-0.54925 -0.80971,-0.35686 0.78316,0.63868 1.64468,1.13896 2.46703,1.70843 -1.67557,-1.34818 -2.62312,-2.03328 -4.75802,-3.51284 -0.32883,-0.2279 -0.69858,-0.42577 -1.0824,-0.49391 -0.19546,-0.0348 -0.39528,-0.0149 -0.59295,-0.0226 -1.93001,0.33069 -3.59803,1.60094 -5.39016,2.42126 -2.47554,1.24665 -4.95862,2.63637 -7.66909,3.02695 -1.07278,0.0205 -1.2959,0.0975 -2.3507,-0.17229 -0.37811,-0.0966 -1.38587,-0.70359 -1.11218,-0.38765 0.58136,0.6711 1.4007,0.99573 2.08899,1.51525 0.60952,0.46008 -2.49184,-1.68711 -1.79103,-1.44413 -0.8826,-0.96588 -1.73333,-1.97104 -2.62871,-2.92123 -0.29704,-0.31522 -0.56995,-0.66835 -0.90508,-0.92786 -1.31007,-1.01443 -2.66607,-1.94837 -4.01899,-2.88508 -0.28622,-0.19817 -0.59694,-0.34498 -0.89541,-0.51749 -0.29136,-0.0688 -0.57704,-0.18969 -0.874088,-0.20654 -1.5254,-0.0866 -3.039349,1.466 -4.373228,2.10114 -2.550943,1.43115 -5.234921,2.56427 -8.110577,2.59832 -1.556003,-0.0948 -3.016707,-0.26495 -4.516272,-0.79175 -0.479978,-0.16863 -1.644251,-1.09819 -1.418218,-0.58173 0.312481,0.71395 1.190688,0.82768 1.739754,1.31639 0.365743,0.32553 -0.791565,-0.54981 -1.187345,-0.82471 -2.528644,-2.09624 -4.689952,-4.94894 -7.811163,-5.94833 -0.187911,0.011 -0.378991,-0.009 -0.563727,0.0319 -1.546491,0.34361 -3.230258,2.11103 -4.656561,2.84 -2.009561,1.26187 -4.090789,2.38984 -5.991331,3.86831 0,0 3.181134,2.35771 3.181134,2.35771 z" />
    <path
       style="fill:#000000;fill-opacity:0.943724;stroke:#000000;stroke-width:0;stroke-linejoin:round;stroke-dasharray:none"
       id="path26773"
       d="m 67.880946,167.7724 c 3.083228,-0.62191 6.139688,-1.4163 9.207491,-2.13508 1.094771,-0.15005 2.280949,-0.71443 3.405827,-0.44587 0.266125,0.0635 0.987037,0.52018 0.752377,0.36214 -3.129859,-2.10803 -2.978503,-2.07867 -1.731009,-0.73069 1.346535,1.63376 2.224395,3.85072 3.950651,5.04451 1.429681,0.9887 2.915049,1.86619 4.372572,2.7993 2.637091,1.0504 5.45518,1.15811 8.131246,0.21248 0.502355,-0.1775 0.98397,-0.42525 1.475953,-0.63789 2.413647,-1.14655 4.548756,-2.90696 6.909466,-4.17419 0.63817,-0.15782 0.76789,-0.27855 1.40927,-0.10286 0.23261,0.0637 0.87383,0.43882 0.67037,0.29406 -4.75453,-3.38332 -2.10846,-1.28706 -1.12691,-0.24728 1.75383,1.84666 3.81809,3.06074 5.95905,4.27953 0.3361,0.19133 1.54007,0.3842 1.87738,0.4477 2.57843,0.082 5.1296,-0.42846 7.65105,-0.99018 1.15153,-0.10406 3.09505,-0.9886 4.22915,-0.61128 0.17457,0.0581 0.32053,0.19737 0.48082,0.29606 -4.51266,-2.88163 -3.21753,-2.36077 -2.30059,-1.29578 0.53191,0.61775 0.98487,1.31753 1.52274,1.93147 1.4145,1.22064 1.10198,0.98219 4.04081,2.70779 0.15136,0.0888 0.33648,0.0901 0.50565,0.0726 0.73838,-0.0764 1.40185,-0.6446 1.99953,-1.08568 1.40508,-1.01033 2.53487,-2.41807 3.76775,-3.67154 0.7585,-0.59905 1.44027,-1.30743 2.16667,-1.95281 0.87619,-0.58851 1.75292,-1.27491 2.71703,-1.65746 0.1072,-8.4e-4 0.21911,-0.0387 0.32159,-0.003 0.096,0.034 0.33271,0.25789 0.24436,0.20297 -1.00617,-0.62558 -1.98123,-1.3179 -2.99986,-1.91613 -0.10315,-0.0605 0.16545,0.18781 0.23644,0.29321 0.1442,0.21401 0.28549,0.53385 0.39667,0.76678 0.82484,1.71015 2.61886,3.49731 4.35451,3.14652 0.0863,-0.0173 1.02919,-0.38077 1.08338,-0.40141 1.21411,-0.6048 2.41529,-1.18853 3.71086,-1.5166 0.52287,-0.0341 0.62624,-0.10186 1.12706,0.10341 0.19316,0.0792 0.73129,0.42697 0.55324,0.30976 -0.86765,-0.57104 -1.71448,-1.19281 -2.62299,-1.67197 -0.22698,-0.11971 0.38242,0.37172 0.55395,0.58075 0.18515,0.2257 0.34221,0.48002 0.51332,0.72002 0.79723,1.23606 1.12827,2.86621 2.16683,3.87861 1.24907,0.71378 2.45212,1.54652 3.74723,2.14136 0.20705,0.0952 1.15895,-0.38343 1.28169,-0.4461 0.74143,-0.37854 1.44468,-0.8471 2.14462,-1.31587 1.2497,-0.88439 2.34281,-2.00376 3.28849,-3.28937 0.13057,-0.18594 0.26112,-0.37185 0.39169,-0.55776 0,0 -3.19181,-2.20217 -3.19181,-2.20217 v 0 c -0.12845,0.18303 -0.25689,0.36605 -0.38533,0.54908 -0.92462,1.2401 -1.96121,2.35784 -3.1947,3.18507 -0.85344,0.56198 -1.7811,1.24668 -2.76358,1.46033 -0.18644,0.0405 -0.71547,-0.0981 -0.56813,0.0397 0.84001,0.78561 1.82974,1.33056 2.74463,1.99581 -0.14,-0.0686 -0.30014,-0.0978 -0.41999,-0.20573 -0.792,-0.71356 -1.24218,-2.62973 -1.85402,-3.5578 -1.45965,-2.29149 -1.6767,-2.00219 -4.75325,-3.95477 -0.56116,-0.35615 -1.21544,-0.31932 -1.82005,-0.20314 -1.28831,0.37643 -2.48493,1.00125 -3.7258,1.53623 -0.27974,0.0878 -0.70606,0.25931 -1.01698,0.23026 -0.1239,-0.0116 -0.46001,-0.20742 -0.35555,-0.12974 4.91206,3.65229 3.18343,2.69919 2.43637,1.34915 -0.13106,-0.29038 -0.31971,-1.00455 -0.56695,-1.19062 -1.43059,-1.07664 -2.55218,-2.79931 -4.17973,-2.33928 -0.95545,0.4966 -1.8688,1.1254 -2.75378,1.76866 -0.74125,0.63724 -1.4371,1.33933 -2.16282,1.99998 -1.18558,1.27202 -2.30137,2.65885 -3.70756,3.61952 -0.57791,0.3828 -1.18024,0.86175 -1.88687,0.78554 -0.15686,-0.0168 -0.58535,-0.25336 -0.45326,-0.15437 0.86948,0.65168 4.02174,2.71026 2.3477,1.61492 -2.33734,-2.36206 -1.55009,-3.11129 -5.61412,-4.92855 -0.18379,-0.0587 -0.36227,-0.14773 -0.55135,-0.17639 -1.36034,-0.20621 -2.85206,0.62937 -4.19011,0.76486 -2.50087,0.56219 -5.04767,1.08208 -7.60495,0.83588 -2.18408,-0.50959 -2.93173,-1.34751 0.55279,1.14599 0.23405,0.16748 -0.48175,-0.30948 -0.71078,-0.48594 -0.49275,-0.37962 -0.91039,-0.80529 -1.36438,-1.242 -1.82374,-2.00964 -2.18581,-2.16805 -5.19568,-3.96865 -0.38086,-0.22785 -1.05967,-0.25758 -1.47024,-0.17685 -0.25748,0.0505 -0.49958,0.17597 -0.74936,0.26395 -2.28912,1.35225 -4.381969,3.13383 -6.793652,4.21088 -0.484382,0.19855 -0.959391,0.43063 -1.453145,0.59568 -2.657012,0.88817 -5.428648,0.71801 -7.997489,-0.45125 0.589973,0.43733 1.150946,0.93167 1.769916,1.31201 0.377304,0.23183 -0.717302,-0.54191 -1.04091,-0.86405 -1.16262,-1.15733 -1.869965,-2.78959 -2.879035,-4.10208 -1.599356,-1.98435 -0.83629,-1.19538 -4.556941,-3.49006 -0.247032,-0.15238 -0.535112,-0.20958 -0.813863,-0.24195 -1.128211,-0.13098 -2.253424,0.40962 -3.345561,0.59924 -3.09512,0.78268 -6.201992,1.61013 -9.359954,1.96224 0,0 3.06285,2.5055 3.06285,2.5055 z" />
    <path
       style="fill:#000000;fill-opacity:0.943724;stroke:#000000;stroke-width:0;stroke-linejoin:round;stroke-dasharray:none"
       id="path26775"
       d="m 69.280459,194.25195 c 1.93503,-1.24355 3.950239,-2.30464 6.011355,-3.23562 1.380997,-0.40512 3.118525,-1.59395 4.597943,-1.21319 0.282776,0.0728 1.047987,0.56678 0.797016,0.39986 -0.773836,-0.51465 -1.579229,-0.96347 -2.368843,-1.44522 1.126902,0.79586 1.758444,2.64507 2.846795,3.43134 3.903395,2.82001 2.823427,2.35005 5.625884,3.14329 4.612204,0.61638 9.211871,-0.45108 13.729621,-1.41687 2.23935,-0.48624 4.46439,-1.05338 6.69755,-1.57491 1.46067,-0.34113 2.48512,-0.59588 3.96617,-0.59926 0.2503,0.0753 0.50951,0.11895 0.7509,0.22624 0.20137,0.0896 0.75674,0.47876 0.56733,0.35956 -0.91927,-0.57845 -1.81243,-1.21555 -2.75685,-1.73739 -0.15046,-0.0832 0.23953,0.26814 0.353,0.40915 0.79936,0.99343 -0.19945,-0.16815 0.63293,0.78334 1.21528,0.81327 2.38901,1.71533 3.64585,2.43979 0.27711,0.15974 1.86462,0.19238 2.0021,0.18889 1.73168,-0.0438 3.40844,-0.45146 5.09744,-0.85122 3.32219,-0.90206 6.50007,-2.36228 9.75437,-3.52534 0.61377,-0.15142 1.05305,-0.36903 1.67309,-0.15736 0.21501,0.0733 0.78616,0.49757 0.58634,0.38021 -3.59459,-2.11153 -2.98995,-2.30928 -1.90582,-0.32305 0.0886,0.18589 0.45364,0.98121 0.5907,1.15377 0.14038,0.17673 0.30322,0.33778 0.48799,0.44759 1.32552,0.78778 2.62743,1.6563 4.03078,2.23798 0.46536,0.19289 2.44638,-0.42315 2.70419,-0.49053 3.2123,-0.84048 6.06424,-2.85257 9.20098,-3.92408 0.29469,-0.051 0.58606,-0.15531 0.88406,-0.15331 0.58596,0.005 5.57488,1.99253 -1.98809,-1.45497 -0.21704,-0.0989 0.32868,0.38627 0.45945,0.60914 0.26239,0.44728 0.45935,1.08468 0.63271,1.57885 0.84095,2.23812 1.85054,2.34659 4.33619,3.67258 0.34746,0.18536 1.69729,-0.4403 2.03129,-0.58227 0.88992,-0.35751 1.73406,-0.83419 2.5427,-1.38744 0,0 -3.1181,-2.32998 -3.1181,-2.32998 v 0 c -0.79049,0.53277 -1.61778,0.98507 -2.48583,1.32725 -0.45985,0.16763 -0.86207,0.35556 -1.34954,0.38154 -0.18764,0.01 -0.70983,-0.19335 -0.56103,-0.0612 0.83715,0.74349 1.78896,1.29741 2.68343,1.94612 -0.13605,-0.15067 -0.29857,-0.27498 -0.40811,-0.45203 -0.13636,-0.22039 -0.21292,-0.48258 -0.31939,-0.72385 -0.17508,-0.53428 -0.5776,-2.08384 -0.99116,-2.40563 -2.70442,-2.10404 -2.97704,-2.97065 -5.34834,-2.31631 -3.06238,1.23089 -5.89644,3.20986 -9.1167,3.9313 -0.52312,0.0993 -1.04122,0.24462 -1.56935,0.29792 -0.38388,0.0387 -1.38958,-0.3762 -1.1559,-0.023 0.58174,0.87941 1.61081,1.20493 2.37753,1.86966 0.15741,0.13647 -0.38511,-0.13621 -0.53997,-0.27648 -0.21893,-0.19835 -0.50342,-0.8952 -0.61791,-1.1447 -0.0267,-0.0508 -0.71616,-1.37443 -0.73957,-1.39401 -1.16723,-0.97563 -2.41122,-1.82589 -3.65681,-2.66292 -0.2001,-0.13446 -0.43303,-0.20751 -0.66292,-0.23989 -0.62614,-0.0881 -1.08466,0.13712 -1.683,0.32342 -3.18194,1.27819 -6.3269,2.72641 -9.62671,3.56451 -1.70677,0.36574 -3.39928,0.74171 -5.14575,0.67912 -0.39754,-0.0142 -0.79558,-0.0579 -1.18721,-0.13806 -0.27742,-0.0567 -1.03967,-0.46221 -0.81195,-0.27093 0.85972,0.72211 1.82553,1.2593 2.73829,1.88895 -0.11714,-0.10749 -0.2444,-0.20173 -0.35145,-0.32242 -0.24049,-0.27116 -0.36142,-0.68379 -0.64208,-0.89755 -1.7756,-1.35226 -3.01882,-2.65948 -4.98586,-2.91361 -1.32968,0.10508 -2.56457,0.43134 -3.86545,0.7709 -2.19779,0.57367 -4.39652,1.14456 -6.610664,1.62977 -4.531192,0.95019 -9.174035,1.99849 -13.781033,1.14864 -1.075514,-0.38422 -3.753983,-1.49908 0.582286,0.95191 0.298674,0.16884 -0.528178,-0.47052 -0.760095,-0.74543 -0.482541,-0.57198 -0.861434,-1.2505 -1.325275,-1.8427 -0.237998,-0.30386 -0.491015,-0.59163 -0.736523,-0.88742 -0.04707,-0.0324 -3.280975,-2.79667 -4.805905,-2.98445 -1.530963,-0.18857 -3.154041,0.96976 -4.577877,1.41417 -2.108212,0.95161 -4.170228,2.01952 -6.226216,3.11136 0,0 3.165021,2.40637 3.165021,2.40637 z" />
  </g>
</svg>
