<?xml version="1.0" encoding="UTF-8" standalone="no"?>
<!-- Created with Inkscape (http://www.inkscape.org/) -->

<svg
   width="210mm"
   height="297mm"
   viewBox="0 0 210 297"
   version="1.1"
   id="svg18537"
   inkscape:version="1.2.1 (9c6d41e410, 2022-07-14)"
   sodipodi:docname="Icono_evaluacion.svg"
   xmlns:inkscape="http://www.inkscape.org/namespaces/inkscape"
   xmlns:sodipodi="http://sodipodi.sourceforge.net/DTD/sodipodi-0.dtd"
   xmlns="http://www.w3.org/2000/svg"
   xmlns:svg="http://www.w3.org/2000/svg">
  <sodipodi:namedview
     id="namedview18539"
     pagecolor="#ffffff"
     bordercolor="#000000"
     borderopacity="0.25"
     inkscape:showpageshadow="2"
     inkscape:pageopacity="0.0"
     inkscape:pagecheckerboard="0"
     inkscape:deskcolor="#d1d1d1"
     inkscape:document-units="mm"
     showgrid="false"
     inkscape:zoom="0.6639443"
     inkscape:cx="319.30389"
     inkscape:cy="459.37588"
     inkscape:window-width="1366"
     inkscape:window-height="699"
     inkscape:window-x="0"
     inkscape:window-y="32"
     inkscape:window-maximized="1"
     inkscape:current-layer="layer1" />
  <defs
     id="defs18534">
    <inkscape:path-effect
       effect="spiro"
       id="path-effect26922"
       is_visible="true"
       lpeversion="1" />
  </defs>
  <g
     inkscape:label="Capa 1"
     inkscape:groupmode="layer"
     id="layer1">
    <rect
       style="fill:#ffffff;fill-opacity:1;stroke:#000000;stroke-width:1.39572;stroke-linejoin:round;stroke-dasharray:none"
       id="rect26803"
       width="138.60429"
       height="178.60428"
       x="30.697861"
       y="30.697861" />
    <path
       style="fill:#ffffff;fill-opacity:0.00134487;stroke:#000000;stroke-width:1;stroke-linejoin:round;stroke-dasharray:none"
       d="M 57.150751,31.026682 56.901786,209.36049"
       id="path26920"
       inkscape:path-effect="#path-effect26922"
       inkscape:original-d="M 57.150751,31.026682 56.901786,209.36049" />
    <ellipse
       style="fill:#ffffff;fill-opacity:0.00134487;stroke:#000000;stroke-width:1;stroke-linejoin:round;stroke-dasharray:none"
       id="path26978"
       cx="43.875584"
       cy="64.178368"
       rx="5.5604253"
       ry="5.7898245" />
    <ellipse
       style="fill:#ffffff;fill-opacity:0.00134487;stroke:#000000;stroke-width:1;stroke-linejoin:round;stroke-dasharray:none"
       id="ellipse26980"
       cx="43.875584"
       cy="174.75313"
       rx="5.5604253"
       ry="5.7898245" />
    <rect
       style="fill:#ffffff;stroke:#000000;stroke-width:1.12349;stroke-linejoin:round"
       id="rect1439"
       width="28.876505"
       height="28.876505"
       x="132.38942"
       y="125.30415" />
    <rect
       style="fill:#ffffff;stroke:#000000;stroke-width:1.12349;stroke-linejoin:round"
       id="rect1441"
       width="28.876505"
       height="28.876505"
       x="132.38942"
       y="165.30414" />
    <rect
       style="fill:#ffffff;stroke:#000000;stroke-width:1.12349;stroke-linejoin:round"
       id="rect1461"
       width="28.876505"
       height="28.876505"
       x="132.38942"
       y="45.30415" />
    <rect
       style="fill:#ffffff;stroke:#000000;stroke-width:1.12349;stroke-linejoin:round"
       id="rect1463"
       width="28.876505"
       height="28.876505"
       x="132.38942"
       y="85.304153" />
    <path
       style="fill:#00ff00;stroke:#000000;stroke-width:0.1;stroke-linejoin:round;stroke-dasharray:none"
       id="path1569"
       d="m 135.90366,57.173125 c 1.56758,3.220053 3.2685,6.41115 5.44689,9.263528 1.5977,1.343903 2.35517,2.118191 5.13494,2.556613 0.53379,0.08419 0.92979,-0.5755 1.29862,-0.970447 1.36211,-1.458518 2.46747,-3.626776 3.35589,-5.325581 0.75804,-1.449498 1.46216,-2.926561 2.19323,-4.389842 3.47348,-7.154854 7.45364,-14.03673 11.80145,-20.690654 0,0 -2.92523,-1.703348 -2.92523,-1.703348 v 0 c -4.10533,6.810692 -7.95803,13.764373 -11.62396,20.821861 -1.05382,1.902357 -2.92418,5.452425 -4.29517,7.364836 -0.49037,0.684027 -1.03222,1.340826 -1.65534,1.906593 -0.35616,0.323387 -1.436,0.285861 -1.2462,0.727916 0.38947,0.907145 1.57986,1.185635 2.33883,1.816957 0.28623,0.238091 -0.61234,-0.42368 -0.91851,-0.635518 -2.25444,-2.741097 -4.01714,-5.88436 -5.40859,-9.142936 0,0 -3.49685,-1.599978 -3.49685,-1.599978 z" />
    <path
       style="fill:#00ff00;stroke:#000000;stroke-width:0.1;stroke-linejoin:round;stroke-dasharray:none"
       id="path1571"
       d="m 136.07446,176.72068 c 1.56759,3.22005 3.2685,6.41115 5.4469,9.26353 1.59769,1.3439 2.35517,2.11819 5.13493,2.55661 0.5338,0.0842 0.92979,-0.5755 1.29863,-0.97044 1.3621,-1.45852 2.46747,-3.62678 3.35589,-5.32559 0.75804,-1.44949 1.46215,-2.92656 2.19323,-4.38984 3.47348,-7.15485 7.45363,-14.03673 11.80144,-20.69065 0,0 -2.92523,-1.70335 -2.92523,-1.70335 v 0 c -4.10532,6.81069 -7.95802,13.76437 -11.62396,20.82186 -1.05382,1.90236 -2.92417,5.45243 -4.29517,7.36484 -0.49037,0.68402 -1.03222,1.34082 -1.65533,1.90659 -0.35617,0.32339 -1.436,0.28586 -1.24621,0.72792 0.38948,0.90714 1.57986,1.18563 2.33884,1.81695 0.28623,0.23809 -0.61235,-0.42368 -0.91852,-0.63551 -2.25443,-2.7411 -4.01713,-5.88436 -5.40859,-9.14294 0,0 -3.49685,-1.59998 -3.49685,-1.59998 z" />
    <path
       style="fill:#00ff00;stroke:#000000;stroke-width:0.1;stroke-linejoin:round;stroke-dasharray:none"
       id="path1573"
       d="m 135.11664,136.63621 c 1.56758,3.22006 3.2685,6.41115 5.44689,9.26353 1.5977,1.34391 2.35517,2.11819 5.13493,2.55662 0.5338,0.0842 0.92979,-0.5755 1.29863,-0.97045 1.3621,-1.45852 2.46747,-3.62678 3.35589,-5.32558 0.75804,-1.4495 1.46215,-2.92656 2.19323,-4.38984 3.47348,-7.15486 7.45364,-14.03673 11.80145,-20.69066 0,0 -2.92523,-1.70335 -2.92523,-1.70335 v 0 c -4.10533,6.8107 -7.95803,13.76438 -11.62397,20.82186 -1.05381,1.90236 -2.92417,5.45243 -4.29517,7.36484 -0.49037,0.68403 -1.03221,1.34083 -1.65533,1.90659 -0.35616,0.32339 -1.436,0.28586 -1.24621,0.72792 0.38948,0.90714 1.57987,1.18563 2.33884,1.81696 0.28623,0.23809 -0.61234,-0.42368 -0.91851,-0.63552 -2.25444,-2.7411 -4.01714,-5.88436 -5.40859,-9.14294 0,0 -3.49685,-1.59998 -3.49685,-1.59998 z" />
    <path
       style="fill:#ff0000;stroke:#000000;stroke-width:0.1;stroke-linejoin:round;stroke-dasharray:none"
       id="path1648"
       d="m 138.04742,88.424064 c 1.78645,1.687107 3.10899,3.804071 4.43464,5.854999 0.65381,1.120857 1.36719,2.20978 1.85744,3.416924 0.33809,0.832449 0.56991,1.717306 0.85677,2.568513 0.44178,1.48291 1.18144,2.8368 1.85595,4.21851 0.41702,0.95996 0.93876,1.86491 1.50266,2.74455 0.36221,0.61183 0.84924,1.14445 1.2012,1.76108 0.22917,0.51293 0.49169,1.00751 0.78627,1.48556 -0.16436,-0.30107 0.6462,0.92047 0.34276,0.66119 -0.0881,-0.0753 -0.29503,-0.26867 -0.1824,-0.29605 1.1547,-0.28062 2.3515,-0.34456 3.52725,-0.51684 0,0 -3.836,0.85593 -3.836,0.85593 v 0 c 1.68168,-0.0765 5.5665,0.87545 4.0503,-1.3298 -0.29791,-0.46698 -0.56793,-0.94951 -0.78201,-1.46144 -0.33542,-0.6428 -0.85829,-1.16931 -1.23677,-1.78758 -0.57281,-0.86079 -1.09831,-1.75018 -1.52617,-2.69325 -0.67939,-1.36495 -1.45777,-2.68707 -1.88041,-4.165973 -0.30574,-0.862778 -0.55935,-1.757796 -0.91782,-2.600412 -0.51954,-1.221233 -1.25877,-2.319899 -1.93226,-3.457693 -1.33094,-2.048462 -2.64118,-4.132247 -4.23152,-5.992297 0,0 -3.88988,0.73408 -3.88988,0.73408 z" />
    <path
       style="fill:#ff0000;stroke:#000000;stroke-width:0.1;stroke-linejoin:round;stroke-dasharray:none"
       id="path1650"
       d="m 157.23812,87.70232 c -1.54082,1.636501 -3.20211,3.15274 -4.84077,4.689805 -2.80656,2.523484 -5.67229,4.978415 -8.45572,7.527891 -1.40478,1.343504 -2.76861,2.737464 -3.85802,4.352684 -0.66119,1.19782 -1.40494,2.34562 -2.17193,3.47761 -0.5224,0.71015 -0.94564,1.477 -1.53917,2.13341 -0.29093,0.50257 -0.69572,0.90483 -1.12928,1.28298 -0.40051,0.51293 -0.86273,0.96624 -1.34394,1.40187 0,0 3.92332,-0.08 3.92332,-0.08 v 0 c 0.47655,-0.44709 0.91724,-0.92446 1.3654,-1.39912 0.42757,-0.40255 0.80006,-0.84449 1.12617,-1.33355 0.5529,-0.68748 0.97251,-1.46019 1.48357,-2.1776 0.74675,-1.14071 1.48905,-2.28373 2.15851,-3.47233 1.07822,-1.5555 2.37059,-2.94015 3.72035,-4.263532 2.74092,-2.582586 5.5917,-5.038813 8.41826,-7.5262 1.71408,-1.561571 3.44399,-3.107151 5.10017,-4.730692 0,0 -3.95692,0.11673 -3.95692,0.11673 z" />
    <path
       style="fill:#000000;stroke:#000000;stroke-width:0.0784757;stroke-linejoin:round;stroke-dasharray:none"
       id="path1705"
       d="m 66.039337,187.30321 c 1.353313,-1.55455 2.709706,-3.10708 4.109488,-4.54928 0.416233,-0.30059 0.689574,-0.61991 1.160027,-0.5362 0.183907,0.0328 0.681101,0.45183 0.526631,0.28578 -2.932604,-3.15261 -1.28047,-1.08713 -0.864598,-0.44304 0.208112,0.32231 0.400804,0.67013 0.601207,1.00518 0.350298,0.59571 0.894637,1.56478 1.295946,2.07114 0.955437,1.20552 3.323344,2.98385 3.865062,3.32103 0.865288,0.53858 2.097953,0.1699 2.947896,0.0473 2.911601,-0.78759 5.512505,-3.08503 8.146745,-5.11795 0.415668,-0.24085 0.833972,-0.57502 1.29161,-0.54238 0.16115,0.0115 0.603803,0.34089 0.468507,0.1976 -3.049199,-3.22917 -1.597757,-1.47576 -1.123788,-0.67207 0.1802,0.30557 0.342304,0.63822 0.513457,0.95733 0.472974,0.81384 0.843762,1.51175 1.392836,2.20447 1.024235,1.29219 3.089288,2.90401 3.90017,3.43643 0.723252,0.47488 1.768152,0.26737 2.504118,0.21716 2.215405,-0.57104 4.186889,-2.34841 6.183869,-3.90452 0.40491,-0.28116 0.61602,-0.5273 1.06314,-0.48523 0.64109,0.0603 1.28862,0.75122 1.85309,1.15664 0.31434,0.22576 0.63439,0.42972 0.95158,0.64458 2.17352,1.28041 4.36541,1.85976 6.65279,1.05897 0.42986,-0.15049 0.84527,-0.39521 1.2679,-0.59281 1.03256,-0.58475 1.96362,-1.52706 2.94763,-2.28103 0.305,-0.2337 0.8,-0.63606 1.17771,-0.56431 0.14193,0.027 0.26088,0.19031 0.39132,0.28547 -0.56415,-0.45767 -1.08144,-1.12218 -1.69244,-1.37302 -0.19162,-0.0787 0.22791,0.52828 0.32302,0.81083 0.16812,0.49944 0.59607,2.42421 0.85093,2.71908 0.77226,0.8935 1.62508,1.5855 2.43762,2.37825 0.19813,-0.0417 0.40339,-0.0295 0.59438,-0.12501 0.81915,-0.40985 1.49334,-1.4869 2.11242,-2.38896 0.51079,-0.74426 1.11351,-1.67175 1.61366,-2.43423 0.25506,-0.39529 0.51013,-0.79058 0.7652,-1.18588 0,0 -1.93973,-1.94895 -1.93973,-1.94895 v 0 c -0.25234,0.39625 -0.50467,0.79251 -0.757,1.18877 -0.62748,0.95347 -0.97025,1.4958 -1.62328,2.4024 -0.58611,0.8137 -1.2877,1.89558 -2.08769,2.11407 -0.17304,0.0473 -0.35021,-0.0355 -0.52532,-0.0531 0.52436,0.5332 1.00302,1.21075 1.57308,1.59961 0.17175,0.11717 -0.22747,-0.483 -0.32107,-0.74554 -0.16979,-0.47624 -0.63319,-2.61588 -0.82106,-2.85357 -0.74595,-0.94376 -1.59298,-1.65315 -2.38947,-2.47973 -0.1488,-0.0401 -0.29586,-0.13518 -0.44641,-0.12041 -0.38706,0.038 -0.83854,0.44885 -1.15967,0.71822 -0.94566,0.79324 -1.85533,1.71109 -2.86808,2.2757 -0.41271,0.18889 -0.81814,0.42685 -1.23813,0.56665 -2.2574,0.75143 -4.50608,0.0626 -6.62711,-1.27608 -0.32449,-0.22947 -0.65013,-0.45468 -0.97347,-0.6884 -0.61263,-0.44281 -1.27927,-1.08946 -1.98139,-1.02517 -0.43857,0.0402 -0.68433,0.31 -1.07325,0.61005 -1.925822,1.64323 -3.855897,3.40379 -6.049515,3.85742 -0.424423,0.007 -0.850469,0.081 -1.273273,0.0202 -0.405125,-0.0582 -0.977422,-0.93286 -1.198167,-0.37562 -0.205691,0.51926 0.886129,0.53795 0.888964,1.15618 0.0026,0.56978 -0.606765,-0.56958 -0.887826,-0.90785 -0.560714,-0.67484 -0.897113,-1.31874 -1.370958,-2.13088 -1.168506,-2.32516 -1.214828,-2.32548 -3.426923,-4.09473 -0.151924,-0.12151 -0.336845,-0.0965 -0.505524,-0.0749 -0.455228,0.0585 -0.859354,0.41279 -1.269801,0.69439 -2.556687,2.14731 -5.113799,4.44419 -8.007741,5.10078 -0.543205,0.0414 -1.086532,0.16944 -1.629617,0.12405 -0.449363,-0.0376 -1.031825,-0.92047 -1.33051,-0.37149 -0.253821,0.4665 0.802939,0.57935 0.886168,1.18817 0.0707,0.51713 -0.573338,-0.50494 -0.83551,-0.81762 -0.244369,-0.29143 -0.459767,-0.64342 -0.67737,-0.98668 -0.213954,-0.33751 -0.41085,-0.70266 -0.616266,-1.05399 -1.368549,-2.38317 -1.419552,-2.45869 -3.745326,-4.35091 -0.176541,-0.14363 -0.386274,-0.16829 -0.583507,-0.16148 -0.475564,0.0164 -0.768522,0.3656 -1.179259,0.70639 -1.387314,1.51562 -2.745392,3.10714 -4.197492,4.45828 0,0 2.03937,2.13445 2.03937,2.13445 z" />
    <path
       style="fill:#000000;stroke:#000000;stroke-width:0.0784757;stroke-linejoin:round;stroke-dasharray:none"
       id="path1707"
       d="m 65.190136,135.02661 c 1.353313,-1.55455 2.709706,-3.10708 4.109488,-4.54928 0.416233,-0.30059 0.689574,-0.61991 1.160027,-0.5362 0.183907,0.0328 0.681101,0.45183 0.526631,0.28578 -2.932604,-3.15261 -1.28047,-1.08713 -0.864598,-0.44304 0.208112,0.32231 0.400804,0.67013 0.601207,1.00518 0.350298,0.59571 0.894637,1.56479 1.295946,2.07114 0.955437,1.20552 3.323344,2.98385 3.865062,3.32103 0.865288,0.53858 2.097953,0.1699 2.947896,0.0473 2.911601,-0.78759 5.512505,-3.08503 8.146745,-5.11795 0.415668,-0.24085 0.833972,-0.57502 1.29161,-0.54238 0.16115,0.0115 0.603803,0.34089 0.468507,0.1976 -3.049199,-3.22917 -1.597757,-1.47576 -1.123788,-0.67207 0.1802,0.30557 0.342304,0.63823 0.513457,0.95733 0.472974,0.81384 0.843762,1.51175 1.392836,2.20447 1.024235,1.29219 3.089288,2.90401 3.90017,3.43643 0.723252,0.47488 1.768152,0.26737 2.504118,0.21716 2.215405,-0.57104 4.18688,-2.34841 6.18387,-3.90451 0.40491,-0.28117 0.61602,-0.52731 1.06314,-0.48524 0.64109,0.0603 1.28862,0.75122 1.85309,1.15664 0.31434,0.22576 0.63439,0.42972 0.95158,0.64458 2.17352,1.28041 4.36541,1.85976 6.65279,1.05898 0.42986,-0.1505 0.84527,-0.39522 1.2679,-0.59282 1.03256,-0.58475 1.96361,-1.52706 2.94763,-2.28103 0.305,-0.2337 0.8,-0.63606 1.17771,-0.56431 0.14192,0.027 0.26088,0.19031 0.39132,0.28547 -0.56415,-0.45767 -1.08144,-1.12218 -1.69244,-1.37302 -0.19162,-0.0787 0.22791,0.52828 0.32302,0.81083 0.16812,0.49944 0.59607,2.42421 0.85093,2.71908 0.77226,0.8935 1.62508,1.5855 2.43762,2.37826 0.19813,-0.0417 0.40339,-0.0295 0.59438,-0.12502 0.81914,-0.40984 1.49333,-1.4869 2.11242,-2.38896 0.51079,-0.74426 1.11351,-1.67175 1.61366,-2.43423 0.25506,-0.39529 0.51013,-0.79058 0.7652,-1.18588 0,0 -1.93974,-1.94895 -1.93974,-1.94895 v 0 c -0.25233,0.39625 -0.50466,0.79251 -0.75699,1.18877 -0.62748,0.95347 -0.97025,1.4958 -1.62328,2.4024 -0.58612,0.8137 -1.2877,1.89558 -2.08769,2.11407 -0.17304,0.0473 -0.35022,-0.0355 -0.52532,-0.0531 0.52436,0.5332 1.00302,1.21075 1.57307,1.59962 0.17176,0.11716 -0.22746,-0.48301 -0.32106,-0.74555 -0.1698,-0.47624 -0.63319,-2.61588 -0.82106,-2.85356 -0.74595,-0.94377 -1.59298,-1.65316 -2.38947,-2.47974 -0.1488,-0.0401 -0.29586,-0.13518 -0.44641,-0.12041 -0.38706,0.038 -0.83854,0.44885 -1.15967,0.71822 -0.94566,0.79324 -1.85533,1.71109 -2.86808,2.27571 -0.41271,0.18888 -0.81814,0.42684 -1.23813,0.56664 -2.2574,0.75143 -4.50608,0.0626 -6.62711,-1.27608 -0.32449,-0.22947 -0.65013,-0.45467 -0.97348,-0.6884 -0.61262,-0.4428 -1.27926,-1.08946 -1.98138,-1.02517 -0.43857,0.0402 -0.68433,0.31 -1.07325,0.61005 -1.925823,1.64323 -3.855898,3.40379 -6.049516,3.85742 -0.424423,0.007 -0.850469,0.081 -1.273273,0.0202 -0.405125,-0.0582 -0.977422,-0.93286 -1.198167,-0.37562 -0.205691,0.51926 0.886129,0.53795 0.888964,1.15618 0.0026,0.56978 -0.606765,-0.56957 -0.887826,-0.90784 -0.560714,-0.67485 -0.897113,-1.31875 -1.370958,-2.13088 -1.168506,-2.32517 -1.214828,-2.32549 -3.426923,-4.09474 -0.151924,-0.12151 -0.336845,-0.0965 -0.505524,-0.0749 -0.455228,0.0585 -0.859354,0.41279 -1.269801,0.69439 -2.556687,2.14731 -5.113799,4.4442 -8.007741,5.10078 -0.543205,0.0414 -1.086532,0.16945 -1.629617,0.12405 -0.449363,-0.0376 -1.031825,-0.92047 -1.33051,-0.37149 -0.253821,0.4665 0.802939,0.57935 0.886168,1.18817 0.0707,0.51713 -0.573338,-0.50494 -0.83551,-0.81762 -0.244369,-0.29143 -0.459767,-0.64342 -0.67737,-0.98668 -0.213954,-0.33751 -0.41085,-0.70266 -0.616266,-1.05399 -1.368549,-2.38317 -1.419552,-2.45869 -3.745326,-4.35091 -0.176541,-0.14363 -0.386274,-0.16829 -0.583507,-0.16148 -0.475564,0.0164 -0.768522,0.3656 -1.179259,0.7064 -1.387314,1.51561 -2.745392,3.10714 -4.197492,4.45827 0,0 2.03937,2.13445 2.03937,2.13445 z" />
    <path
       style="fill:#000000;stroke:#000000;stroke-width:0.0784757;stroke-linejoin:round;stroke-dasharray:none"
       id="path1709"
       d="m 65.710386,108.43826 c 1.353313,-1.55456 2.709706,-3.10708 4.109488,-4.54928 0.416233,-0.3006 0.689574,-0.61991 1.160027,-0.53621 0.183907,0.0328 0.681101,0.45184 0.526631,0.28578 -2.932604,-3.1526 -1.28047,-1.08713 -0.864598,-0.44303 0.208112,0.32231 0.400804,0.67012 0.601207,1.00518 0.350298,0.59571 0.894637,1.56478 1.295946,2.07114 0.955437,1.20551 3.323344,2.98385 3.865062,3.32103 0.865288,0.53857 2.097953,0.16989 2.947896,0.0473 2.911601,-0.78759 5.512505,-3.08503 8.146745,-5.11795 0.415668,-0.24086 0.833972,-0.57503 1.29161,-0.54238 0.16115,0.0115 0.603803,0.34089 0.468507,0.1976 -3.049199,-3.22917 -1.597757,-1.47577 -1.123788,-0.67207 0.1802,0.30556 0.342304,0.63822 0.513457,0.95733 0.472974,0.81384 0.843762,1.51175 1.392836,2.20447 1.024235,1.29219 3.089288,2.904 3.90017,3.43643 0.723252,0.47488 1.768152,0.26736 2.504118,0.21715 2.215405,-0.57103 4.18688,-2.3484 6.18387,-3.90451 0.40491,-0.28116 0.61602,-0.5273 1.06314,-0.48523 0.64109,0.0603 1.28862,0.75121 1.85309,1.15664 0.31434,0.22576 0.63439,0.42971 0.95158,0.64458 2.17352,1.28041 4.36541,1.85975 6.65279,1.05897 0.42986,-0.15049 0.84527,-0.39521 1.2679,-0.59281 1.03256,-0.58475 1.96361,-1.52706 2.94763,-2.28103 0.305,-0.2337 0.8,-0.63606 1.17771,-0.56431 0.14192,0.027 0.26088,0.1903 0.39132,0.28546 -0.56415,-0.45766 -1.08144,-1.12218 -1.69245,-1.37301 -0.19161,-0.0787 0.22792,0.52828 0.32303,0.81083 0.16812,0.49944 0.59607,2.42421 0.85093,2.71907 0.77226,0.8935 1.62508,1.58551 2.43762,2.37826 0.19813,-0.0417 0.40339,-0.0295 0.59438,-0.12501 0.81914,-0.40985 1.49333,-1.48691 2.11242,-2.38896 0.51078,-0.74426 1.1135,-1.67175 1.61366,-2.43423 0.25506,-0.39529 0.51013,-0.79059 0.7652,-1.18588 0,0 -1.93974,-1.94896 -1.93974,-1.94896 v 0 c -0.25233,0.39626 -0.50466,0.79252 -0.75699,1.18877 -0.62748,0.95348 -0.97025,1.49581 -1.62328,2.40241 -0.58612,0.8137 -1.2877,1.89558 -2.08769,2.11406 -0.17304,0.0473 -0.35022,-0.0355 -0.52532,-0.0531 0.52435,0.53321 1.00302,1.21075 1.57307,1.59962 0.17176,0.11717 -0.22746,-0.48301 -0.32106,-0.74554 -0.1698,-0.47624 -0.63319,-2.61588 -0.82106,-2.85357 -0.74595,-0.94376 -1.59298,-1.65315 -2.38947,-2.47973 -0.1488,-0.0401 -0.29586,-0.13519 -0.44641,-0.12041 -0.38706,0.038 -0.83854,0.44885 -1.15967,0.71821 -0.94566,0.79325 -1.85533,1.71109 -2.86808,2.27571 -0.41271,0.18888 -0.81814,0.42685 -1.23813,0.56665 -2.25741,0.75142 -4.50608,0.0626 -6.62711,-1.27609 -0.32449,-0.22946 -0.65013,-0.45467 -0.97348,-0.68839 -0.61262,-0.44281 -1.27926,-1.08946 -1.98138,-1.02517 -0.43857,0.0402 -0.68434,0.31 -1.07325,0.61005 -1.925823,1.64323 -3.855898,3.40379 -6.049516,3.85742 -0.424423,0.007 -0.850469,0.081 -1.273273,0.0202 -0.405125,-0.0582 -0.977422,-0.93286 -1.198167,-0.37562 -0.205691,0.51925 0.886129,0.53795 0.888964,1.15617 0.0026,0.56978 -0.606765,-0.56957 -0.887826,-0.90784 -0.560714,-0.67485 -0.897113,-1.31874 -1.370958,-2.13088 -1.168506,-2.32516 -1.214828,-2.32548 -3.426923,-4.09474 -0.151924,-0.1215 -0.336845,-0.0965 -0.505524,-0.0749 -0.455228,0.0585 -0.859354,0.4128 -1.269801,0.6944 -2.556687,2.1473 -5.113799,4.44419 -8.007741,5.10078 -0.543205,0.0414 -1.086532,0.16944 -1.629617,0.12405 -0.449363,-0.0376 -1.031825,-0.92048 -1.33051,-0.37149 -0.253821,0.4665 0.802939,0.57935 0.886168,1.18816 0.0707,0.51713 -0.573338,-0.50494 -0.83551,-0.81762 -0.244369,-0.29143 -0.459767,-0.64341 -0.67737,-0.98667 -0.213954,-0.33751 -0.41085,-0.70266 -0.616266,-1.05399 -1.368549,-2.38317 -1.419552,-2.45869 -3.745326,-4.35091 -0.176541,-0.14364 -0.386274,-0.16829 -0.583507,-0.16148 -0.475564,0.0164 -0.768522,0.36559 -1.179259,0.70639 -1.387314,1.51561 -2.745392,3.10714 -4.197492,4.45828 0,0 2.03937,2.13445 2.03937,2.13445 z" />
    <path
       style="fill:#000000;stroke:#000000;stroke-width:0.0784757;stroke-linejoin:round;stroke-dasharray:none"
       id="path1711"
       d="m 65.076507,93.114416 c 1.353313,-1.554553 2.709706,-3.10708 4.109488,-4.54928 0.416233,-0.300593 0.689574,-0.619908 1.160027,-0.536203 0.183907,0.03277 0.681101,0.451836 0.526631,0.285778 -2.932604,-3.152607 -1.28047,-1.08713 -0.864598,-0.443036 0.208112,0.322314 0.400804,0.670126 0.601207,1.005179 0.350298,0.595712 0.894637,1.564786 1.295946,2.07114 0.955437,1.205517 3.323344,2.983852 3.865062,3.32103 0.865288,0.538578 2.097953,0.169897 2.947896,0.04731 2.911601,-0.78759 5.512505,-3.085029 8.146745,-5.117949 0.415668,-0.240853 0.833972,-0.575024 1.29161,-0.542378 0.16115,0.01153 0.603803,0.340887 0.468507,0.197602 -3.049199,-3.229175 -1.597757,-1.475768 -1.123788,-0.672071 0.1802,0.305564 0.342304,0.638222 0.513457,0.957327 0.472974,0.813842 0.843762,1.511753 1.392836,2.204471 1.024235,1.29219 3.089288,2.904007 3.90017,3.436431 0.723252,0.474879 1.768152,0.267364 2.504118,0.217156 2.215405,-0.571034 4.186884,-2.348407 6.183869,-3.904513 0.40491,-0.281166 0.61602,-0.527302 1.06314,-0.485233 0.64109,0.06034 1.28862,0.751215 1.85309,1.156642 0.31434,0.225758 0.63439,0.429714 0.95158,0.644577 2.17352,1.280411 4.36541,1.859755 6.65279,1.058974 0.42986,-0.150492 0.84527,-0.395214 1.2679,-0.592816 1.03256,-0.584746 1.96362,-1.527058 2.94763,-2.28103 0.305,-0.233695 0.8,-0.636056 1.17771,-0.564308 0.14193,0.02697 0.26088,0.190305 0.39132,0.285467 -0.56415,-0.457669 -1.08144,-1.122182 -1.69244,-1.373019 -0.19162,-0.07869 0.22791,0.528285 0.32302,0.810835 0.16812,0.499437 0.59607,2.424205 0.85093,2.719074 0.77226,0.893498 1.62508,1.585505 2.43762,2.378257 0.19813,-0.0417 0.40339,-0.02947 0.59438,-0.125012 0.81915,-0.409848 1.49334,-1.486905 2.11242,-2.388962 0.51079,-0.744259 1.11351,-1.671747 1.61366,-2.434228 0.25506,-0.395294 0.51013,-0.790587 0.7652,-1.185881 0,0 -1.93973,-1.948955 -1.93973,-1.948955 v 0 c -0.25234,0.396257 -0.50467,0.792512 -0.757,1.188769 -0.62748,0.953477 -0.97025,1.495805 -1.62328,2.402403 -0.58611,0.813702 -1.2877,1.89558 -2.08769,2.114069 -0.17304,0.04731 -0.35021,-0.03549 -0.52532,-0.05312 0.52436,0.533206 1.00302,1.210749 1.57308,1.599617 0.17175,0.117164 -0.22747,-0.483008 -0.32107,-0.745541 -0.16979,-0.476244 -0.63319,-2.615883 -0.82106,-2.853569 -0.74595,-0.943764 -1.59298,-1.653152 -2.38947,-2.479734 -0.1488,-0.04009 -0.29586,-0.135185 -0.44641,-0.120411 -0.38706,0.03799 -0.83854,0.448849 -1.15967,0.718218 -0.94566,0.793244 -1.85533,1.711089 -2.86808,2.275707 -0.41271,0.188882 -0.81814,0.426848 -1.23813,0.566645 -2.2574,0.751426 -4.50608,0.06264 -6.62711,-1.276082 -0.32449,-0.229466 -0.65013,-0.454673 -0.97347,-0.688399 -0.61263,-0.442804 -1.27927,-1.089455 -1.98139,-1.025165 -0.43857,0.04019 -0.68433,0.309995 -1.07325,0.610045 -1.925822,1.64323 -3.855897,3.403794 -6.049515,3.857423 -0.424423,0.007 -0.850469,0.08099 -1.273273,0.02015 -0.405125,-0.05824 -0.977422,-0.932859 -1.198167,-0.375618 -0.205691,0.519253 0.886129,0.537948 0.888964,1.156172 0.0026,0.569782 -0.606765,-0.569571 -0.887826,-0.907841 -0.560714,-0.674847 -0.897113,-1.318741 -1.370958,-2.13088 -1.168506,-2.325162 -1.214828,-2.325483 -3.426923,-4.094738 -0.151924,-0.121504 -0.336845,-0.09652 -0.505524,-0.07487 -0.455228,0.05854 -0.859354,0.412795 -1.269801,0.694394 -2.556687,2.147307 -5.113799,4.444194 -8.007741,5.100778 -0.543205,0.04139 -1.086532,0.169446 -1.629617,0.12405 -0.449363,-0.03759 -1.031825,-0.920471 -1.33051,-0.371488 -0.253821,0.4665 0.802939,0.579353 0.886168,1.188166 0.0707,0.517129 -0.573338,-0.50494 -0.83551,-0.81762 -0.244369,-0.291431 -0.459767,-0.643414 -0.67737,-0.986676 -0.213954,-0.337508 -0.41085,-0.702662 -0.616266,-1.053992 -1.368549,-2.383169 -1.419552,-2.458686 -3.745326,-4.350907 -0.176541,-0.143636 -0.386274,-0.168293 -0.583507,-0.161478 -0.475564,0.01644 -0.768522,0.365594 -1.179259,0.706391 -1.387314,1.515612 -2.745392,3.10714 -4.197492,4.458277 0,0 2.03937,2.134448 2.03937,2.134448 z" />
    <path
       style="fill:#000000;stroke:#000000;stroke-width:0.0784757;stroke-linejoin:round;stroke-dasharray:none"
       id="path1713"
       d="m 64.629445,67.947758 c 1.353313,-1.554553 2.709706,-3.10708 4.109488,-4.54928 0.416233,-0.300593 0.689574,-0.619908 1.160027,-0.536203 0.183907,0.03277 0.681101,0.451836 0.526631,0.285778 -2.932604,-3.152607 -1.28047,-1.08713 -0.864598,-0.443036 0.208112,0.322314 0.400804,0.670126 0.601207,1.005179 0.350298,0.595712 0.894637,1.564786 1.295946,2.07114 0.955437,1.205517 3.323344,2.983852 3.865062,3.32103 0.865288,0.538578 2.097953,0.169897 2.947896,0.04731 2.911601,-0.78759 5.512505,-3.085029 8.146745,-5.117949 0.415668,-0.240853 0.833972,-0.575024 1.29161,-0.542378 0.16115,0.01153 0.603803,0.340887 0.468507,0.197602 -3.049199,-3.229175 -1.597757,-1.475768 -1.123788,-0.672071 0.1802,0.305564 0.342304,0.638222 0.513457,0.957327 0.472974,0.813842 0.843762,1.511753 1.392836,2.204471 1.024235,1.29219 3.089288,2.904007 3.90017,3.436431 0.723252,0.474879 1.768152,0.267364 2.504118,0.217156 2.215405,-0.571034 4.186884,-2.348407 6.183871,-3.904513 0.40491,-0.281166 0.61602,-0.527302 1.06314,-0.485233 0.64109,0.06034 1.28862,0.751215 1.85309,1.156642 0.31434,0.225758 0.63438,0.429714 0.95158,0.644577 2.17352,1.280411 4.36541,1.859755 6.65279,1.058974 0.42986,-0.150492 0.84526,-0.395214 1.2679,-0.592816 1.03256,-0.584746 1.96361,-1.527058 2.94763,-2.28103 0.305,-0.233695 0.79999,-0.636056 1.17771,-0.564308 0.14192,0.02697 0.26088,0.190305 0.39132,0.285467 -0.56415,-0.457669 -1.08144,-1.122182 -1.69245,-1.373019 -0.19161,-0.07869 0.22792,0.528285 0.32303,0.810835 0.16811,0.499437 0.59607,2.424205 0.85092,2.719074 0.77227,0.893498 1.62509,1.585505 2.43763,2.378257 0.19812,-0.0417 0.40339,-0.02947 0.59438,-0.125012 0.81914,-0.409848 1.49333,-1.486905 2.11242,-2.388962 0.51078,-0.744259 1.1135,-1.671747 1.61366,-2.434228 0.25506,-0.395294 0.51013,-0.790587 0.7652,-1.185881 0,0 -1.93974,-1.948955 -1.93974,-1.948955 v 0 c -0.25233,0.396257 -0.50466,0.792512 -0.75699,1.188769 -0.62748,0.953477 -0.97025,1.495805 -1.62328,2.402403 -0.58612,0.813702 -1.2877,1.89558 -2.08769,2.114069 -0.17304,0.04731 -0.35022,-0.03549 -0.52533,-0.05312 0.52436,0.533206 1.00303,1.210749 1.57308,1.599617 0.17176,0.117164 -0.22746,-0.483008 -0.32106,-0.745541 -0.1698,-0.476244 -0.63319,-2.615883 -0.82106,-2.853569 -0.74595,-0.943764 -1.59298,-1.653152 -2.38947,-2.479734 -0.14881,-0.04009 -0.29586,-0.135185 -0.44641,-0.120411 -0.38706,0.03799 -0.83854,0.448849 -1.15967,0.718218 -0.94567,0.793244 -1.85533,1.711089 -2.86809,2.275707 -0.4127,0.188882 -0.81813,0.426848 -1.23812,0.566645 -2.25741,0.751426 -4.50608,0.06264 -6.62711,-1.276082 -0.32449,-0.229466 -0.65013,-0.454673 -0.97348,-0.688399 -0.61262,-0.442804 -1.27926,-1.089455 -1.98138,-1.025165 -0.43857,0.04019 -0.684336,0.309995 -1.073253,0.610045 -1.925821,1.64323 -3.855896,3.403794 -6.049514,3.857423 -0.424423,0.007 -0.850469,0.08099 -1.273273,0.02015 -0.405125,-0.05824 -0.977422,-0.932859 -1.198167,-0.375618 -0.205691,0.519253 0.886129,0.537948 0.888964,1.156172 0.0026,0.569782 -0.606765,-0.569571 -0.887826,-0.907841 -0.560714,-0.674847 -0.897113,-1.318741 -1.370958,-2.13088 -1.168506,-2.325162 -1.214828,-2.325483 -3.426923,-4.094738 -0.151924,-0.121504 -0.336845,-0.09652 -0.505524,-0.07487 -0.455228,0.05854 -0.859354,0.412795 -1.269801,0.694394 -2.556687,2.147307 -5.113799,4.444194 -8.007741,5.100778 -0.543205,0.04139 -1.086532,0.169446 -1.629617,0.12405 -0.449363,-0.03759 -1.031825,-0.920471 -1.33051,-0.371488 -0.253821,0.4665 0.802939,0.579353 0.886168,1.188166 0.0707,0.517129 -0.573338,-0.50494 -0.83551,-0.81762 -0.244369,-0.291431 -0.459767,-0.643414 -0.67737,-0.986676 -0.213954,-0.337508 -0.41085,-0.702662 -0.616266,-1.053992 -1.368549,-2.383169 -1.419552,-2.458686 -3.745326,-4.350907 -0.176541,-0.143636 -0.386274,-0.168293 -0.583507,-0.161478 -0.475564,0.01644 -0.768522,0.365594 -1.179259,0.706391 -1.387314,1.515612 -2.745392,3.10714 -4.197492,4.458277 0,0 2.03937,2.134448 2.03937,2.134448 z" />
    <path
       style="fill:#000000;stroke:#000000;stroke-width:0.0784757;stroke-linejoin:round;stroke-dasharray:none"
       id="path1715"
       d="m 64.606855,54.870053 c 1.353313,-1.554553 2.709706,-3.10708 4.109488,-4.54928 0.416233,-0.300593 0.689574,-0.619908 1.160027,-0.536203 0.183907,0.03277 0.681101,0.451836 0.526631,0.285778 -2.932604,-3.152607 -1.28047,-1.08713 -0.864598,-0.443036 0.208112,0.322314 0.400804,0.670126 0.601207,1.005179 0.350298,0.595712 0.894637,1.564786 1.295946,2.07114 0.955437,1.205517 3.323344,2.983852 3.865062,3.32103 0.865288,0.538578 2.097953,0.169897 2.947896,0.04731 2.911601,-0.78759 5.512505,-3.085029 8.146745,-5.117949 0.415668,-0.240853 0.833972,-0.575024 1.29161,-0.542378 0.16115,0.01153 0.603803,0.340887 0.468507,0.197602 -3.049199,-3.229175 -1.597757,-1.475768 -1.123788,-0.672071 0.1802,0.305564 0.342304,0.638222 0.513457,0.957327 0.472974,0.813842 0.843762,1.511753 1.392836,2.204471 1.024235,1.29219 3.089288,2.904007 3.90017,3.436431 0.723252,0.474879 1.768152,0.267364 2.504118,0.217156 2.215405,-0.571034 4.186884,-2.348407 6.183871,-3.904513 0.40491,-0.281166 0.61602,-0.527302 1.06314,-0.485233 0.64109,0.06034 1.28862,0.751215 1.85309,1.156642 0.31434,0.225758 0.63438,0.429714 0.95158,0.644577 2.17352,1.280411 4.36541,1.859755 6.65279,1.058974 0.42986,-0.150492 0.84526,-0.395214 1.2679,-0.592816 1.03256,-0.584746 1.96361,-1.527058 2.94763,-2.28103 0.305,-0.233695 0.79999,-0.636056 1.17771,-0.564308 0.14192,0.02697 0.26088,0.190305 0.39132,0.285467 -0.56415,-0.457669 -1.08144,-1.122182 -1.69245,-1.373019 -0.19161,-0.07869 0.22792,0.528285 0.32303,0.810835 0.16811,0.499437 0.59607,2.424205 0.85092,2.719074 0.77227,0.893498 1.62509,1.585505 2.43763,2.378257 0.19812,-0.0417 0.40339,-0.02947 0.59438,-0.125012 0.81914,-0.409848 1.49333,-1.486905 2.11242,-2.388962 0.51078,-0.744259 1.1135,-1.671747 1.61366,-2.434228 0.25506,-0.395294 0.51013,-0.790587 0.7652,-1.185881 0,0 -1.93974,-1.948955 -1.93974,-1.948955 v 0 c -0.25233,0.396257 -0.50466,0.792512 -0.75699,1.188769 -0.62748,0.953477 -0.97025,1.495805 -1.62328,2.402403 -0.58612,0.813702 -1.2877,1.89558 -2.08769,2.114069 -0.17304,0.04731 -0.35022,-0.03549 -0.52533,-0.05312 0.52436,0.533206 1.00303,1.210749 1.57308,1.599617 0.17176,0.117164 -0.22746,-0.483008 -0.32106,-0.745541 -0.1698,-0.476244 -0.63319,-2.615883 -0.82106,-2.853569 -0.74595,-0.943764 -1.59298,-1.653152 -2.38947,-2.479734 -0.14881,-0.04009 -0.29586,-0.135185 -0.44641,-0.120411 -0.38706,0.03799 -0.83854,0.448849 -1.15967,0.718218 -0.94567,0.793244 -1.85533,1.711089 -2.86809,2.275707 -0.4127,0.188882 -0.81813,0.426848 -1.23812,0.566645 -2.25741,0.751426 -4.50608,0.06264 -6.62711,-1.276082 -0.32449,-0.229466 -0.65013,-0.454673 -0.97348,-0.688399 -0.61262,-0.442804 -1.27926,-1.089455 -1.98138,-1.025165 -0.43857,0.04019 -0.684336,0.309995 -1.073253,0.610045 -1.925821,1.64323 -3.855896,3.403794 -6.049514,3.857423 -0.424423,0.007 -0.850469,0.08099 -1.273273,0.02015 -0.405125,-0.05824 -0.977422,-0.932859 -1.198167,-0.375618 -0.205691,0.519253 0.886129,0.537948 0.888964,1.156172 0.0026,0.569782 -0.606765,-0.569571 -0.887826,-0.907841 -0.560714,-0.674847 -0.897113,-1.318741 -1.370958,-2.13088 -1.168506,-2.325162 -1.214828,-2.325483 -3.426923,-4.094738 -0.151924,-0.121504 -0.336845,-0.09652 -0.505524,-0.07487 -0.455228,0.05854 -0.859354,0.412795 -1.269801,0.694394 -2.556687,2.147307 -5.113799,4.444194 -8.007741,5.100778 -0.543205,0.04139 -1.086532,0.169446 -1.629617,0.12405 -0.449363,-0.03759 -1.031825,-0.920471 -1.33051,-0.371488 -0.253821,0.4665 0.802939,0.579353 0.886168,1.188166 0.0707,0.517129 -0.573338,-0.50494 -0.83551,-0.81762 -0.244369,-0.291431 -0.459767,-0.643414 -0.67737,-0.986676 -0.213954,-0.337508 -0.41085,-0.702662 -0.616266,-1.053992 -1.368549,-2.383169 -1.419552,-2.458686 -3.745326,-4.350907 -0.176541,-0.143636 -0.386274,-0.168293 -0.583507,-0.161478 -0.475564,0.01644 -0.768522,0.365594 -1.179259,0.706391 -1.387314,1.515612 -2.745392,3.10714 -4.197492,4.458277 0,0 2.03937,2.134448 2.03937,2.134448 z" />
    <path
       style="fill:#000000;stroke:#000000;stroke-width:0.0784757;stroke-linejoin:round;stroke-dasharray:none"
       id="path1717"
       d="m 65.282775,173.35908 c 1.353313,-1.55455 2.709706,-3.10708 4.109488,-4.54928 0.416233,-0.30059 0.689574,-0.6199 1.160027,-0.5362 0.183907,0.0328 0.681101,0.45184 0.526631,0.28578 -2.932604,-3.15261 -1.28047,-1.08713 -0.864598,-0.44304 0.208112,0.32232 0.400804,0.67013 0.601207,1.00518 0.350298,0.59571 0.894637,1.56479 1.295946,2.07114 0.955437,1.20552 3.323344,2.98385 3.865062,3.32103 0.865288,0.53858 2.097953,0.1699 2.947896,0.0473 2.911601,-0.78759 5.512505,-3.08503 8.146745,-5.11795 0.415668,-0.24085 0.833972,-0.57502 1.29161,-0.54237 0.16115,0.0115 0.603803,0.34088 0.468507,0.1976 -3.049199,-3.22918 -1.597757,-1.47577 -1.123788,-0.67207 0.1802,0.30556 0.342304,0.63822 0.513457,0.95732 0.472974,0.81385 0.843762,1.51176 1.392836,2.20447 1.024235,1.29219 3.089288,2.90401 3.90017,3.43644 0.723252,0.47487 1.768152,0.26736 2.504118,0.21715 2.215405,-0.57103 4.186881,-2.34841 6.183871,-3.90451 0.40491,-0.28117 0.61602,-0.5273 1.06314,-0.48523 0.64109,0.0603 1.28862,0.75121 1.85309,1.15664 0.31434,0.22576 0.63439,0.42971 0.95158,0.64457 2.17352,1.28042 4.36541,1.85976 6.65279,1.05898 0.42986,-0.15049 0.84527,-0.39522 1.2679,-0.59282 1.03256,-0.58474 1.96361,-1.52706 2.94763,-2.28103 0.305,-0.23369 0.8,-0.63605 1.17771,-0.56431 0.14192,0.027 0.26088,0.19031 0.39132,0.28547 -0.56415,-0.45767 -1.08144,-1.12218 -1.69245,-1.37302 -0.19161,-0.0787 0.22792,0.52829 0.32303,0.81084 0.16812,0.49943 0.59607,2.4242 0.85093,2.71907 0.77226,0.8935 1.62508,1.58551 2.43762,2.37826 0.19813,-0.0417 0.40339,-0.0295 0.59438,-0.12501 0.81914,-0.40985 1.49333,-1.48691 2.11242,-2.38897 0.51078,-0.74425 1.1135,-1.67174 1.61366,-2.43422 0.25506,-0.3953 0.51013,-0.79059 0.7652,-1.18588 0,0 -1.93974,-1.94896 -1.93974,-1.94896 v 0 c -0.25233,0.39626 -0.50466,0.79251 -0.75699,1.18877 -0.62748,0.95348 -0.97025,1.4958 -1.62328,2.4024 -0.58612,0.8137 -1.2877,1.89558 -2.08769,2.11407 -0.17304,0.0473 -0.35022,-0.0355 -0.52532,-0.0531 0.52435,0.53321 1.00302,1.21075 1.57307,1.59962 0.17176,0.11716 -0.22746,-0.48301 -0.32106,-0.74554 -0.1698,-0.47625 -0.63319,-2.61589 -0.82106,-2.85357 -0.74595,-0.94377 -1.59298,-1.65315 -2.38947,-2.47974 -0.1488,-0.0401 -0.29586,-0.13518 -0.44641,-0.12041 -0.38706,0.038 -0.83854,0.44885 -1.15967,0.71822 -0.94566,0.79325 -1.85533,1.71109 -2.86808,2.27571 -0.41271,0.18888 -0.81814,0.42685 -1.23813,0.56664 -2.25741,0.75143 -4.50608,0.0626 -6.62711,-1.27608 -0.32449,-0.22946 -0.65013,-0.45467 -0.97348,-0.6884 -0.61262,-0.4428 -1.27926,-1.08945 -1.98138,-1.02516 -0.43857,0.0402 -0.68434,0.30999 -1.07325,0.61004 -1.925824,1.64323 -3.855899,3.4038 -6.049517,3.85743 -0.424423,0.007 -0.850469,0.081 -1.273273,0.0202 -0.405125,-0.0582 -0.977422,-0.93286 -1.198167,-0.37562 -0.205691,0.51925 0.886129,0.53795 0.888964,1.15617 0.0026,0.56978 -0.606765,-0.56957 -0.887826,-0.90784 -0.560714,-0.67485 -0.897113,-1.31874 -1.370958,-2.13088 -1.168506,-2.32516 -1.214828,-2.32548 -3.426923,-4.09474 -0.151924,-0.1215 -0.336845,-0.0965 -0.505524,-0.0749 -0.455228,0.0585 -0.859354,0.4128 -1.269801,0.69439 -2.556687,2.14731 -5.113799,4.4442 -8.007741,5.10078 -0.543205,0.0414 -1.086532,0.16945 -1.629617,0.12405 -0.449363,-0.0376 -1.031825,-0.92047 -1.33051,-0.37149 -0.253821,0.4665 0.802939,0.57936 0.886168,1.18817 0.0707,0.51713 -0.573338,-0.50494 -0.83551,-0.81762 -0.244369,-0.29143 -0.459767,-0.64341 -0.67737,-0.98668 -0.213954,-0.3375 -0.41085,-0.70266 -0.616266,-1.05399 -1.368549,-2.38317 -1.419552,-2.45868 -3.745326,-4.3509 -0.176541,-0.14364 -0.386274,-0.1683 -0.583507,-0.16148 -0.475564,0.0164 -0.768522,0.36559 -1.179259,0.70639 -1.387314,1.51561 -2.745392,3.10714 -4.197492,4.45828 0,0 2.03937,2.13444 2.03937,2.13444 z" />
    <path
       style="fill:#000000;stroke:#000000;stroke-width:0.0784757;stroke-linejoin:round;stroke-dasharray:none"
       id="path1719"
       d="m 66.68939,149.56535 c 1.353313,-1.55456 2.709706,-3.10708 4.109488,-4.54928 0.416233,-0.3006 0.689574,-0.61991 1.160027,-0.53621 0.183907,0.0328 0.681101,0.45184 0.526631,0.28578 -2.932604,-3.1526 -1.28047,-1.08713 -0.864598,-0.44303 0.208112,0.32231 0.400804,0.67012 0.601207,1.00518 0.350298,0.59571 0.894637,1.56478 1.295946,2.07114 0.955437,1.20551 3.323344,2.98385 3.865062,3.32103 0.865288,0.53857 2.097953,0.16989 2.947896,0.0473 2.911601,-0.78759 5.512505,-3.08503 8.146745,-5.11795 0.415668,-0.24086 0.833972,-0.57503 1.29161,-0.54238 0.16115,0.0115 0.603803,0.34089 0.468507,0.1976 -3.049199,-3.22917 -1.597757,-1.47577 -1.123788,-0.67207 0.1802,0.30556 0.342304,0.63822 0.513457,0.95733 0.472974,0.81384 0.843762,1.51175 1.392836,2.20447 1.024235,1.29219 3.089288,2.904 3.90017,3.43643 0.723252,0.47488 1.768152,0.26736 2.504118,0.21715 2.215405,-0.57103 4.186886,-2.3484 6.183866,-3.90451 0.40491,-0.28116 0.61602,-0.5273 1.06314,-0.48523 0.6411,0.0603 1.28862,0.75121 1.8531,1.15664 0.31433,0.22576 0.63438,0.42971 0.95157,0.64458 2.17353,1.28041 4.36541,1.85975 6.65279,1.05897 0.42986,-0.15049 0.84527,-0.39521 1.26791,-0.59281 1.03255,-0.58475 1.96361,-1.52706 2.94763,-2.28103 0.305,-0.2337 0.79999,-0.63606 1.1777,-0.56431 0.14193,0.027 0.26088,0.1903 0.39132,0.28546 -0.56415,-0.45766 -1.08144,-1.12218 -1.69244,-1.37301 -0.19161,-0.0787 0.22792,0.52828 0.32302,0.81083 0.16812,0.49944 0.59608,2.42421 0.85093,2.71907 0.77226,0.8935 1.62508,1.58551 2.43762,2.37826 0.19813,-0.0417 0.4034,-0.0295 0.59438,-0.12501 0.81915,-0.40985 1.49334,-1.48691 2.11242,-2.38896 0.51079,-0.74426 1.11351,-1.67175 1.61366,-2.43423 0.25507,-0.39529 0.51014,-0.79059 0.7652,-1.18588 0,0 -1.93973,-1.94896 -1.93973,-1.94896 v 0 c -0.25233,0.39626 -0.50466,0.79252 -0.75699,1.18877 -0.62748,0.95348 -0.97026,1.49581 -1.62329,2.40241 -0.58611,0.8137 -1.2877,1.89558 -2.08769,2.11406 -0.17303,0.0473 -0.35021,-0.0355 -0.52532,-0.0531 0.52436,0.53321 1.00303,1.21075 1.57308,1.59962 0.17176,0.11717 -0.22747,-0.48301 -0.32107,-0.74554 -0.16979,-0.47624 -0.63319,-2.61588 -0.82105,-2.85357 -0.74596,-0.94376 -1.59298,-1.65315 -2.38948,-2.47973 -0.1488,-0.0401 -0.29586,-0.13519 -0.44641,-0.12041 -0.38705,0.038 -0.83854,0.44885 -1.15966,0.71821 -0.94567,0.79325 -1.85533,1.71109 -2.86809,2.27571 -0.41271,0.18888 -0.81814,0.42685 -1.23812,0.56665 -2.25741,0.75142 -4.50609,0.0626 -6.62712,-1.27609 -0.32449,-0.22946 -0.65012,-0.45467 -0.97347,-0.68839 -0.61263,-0.44281 -1.27927,-1.08946 -1.98139,-1.02517 -0.43857,0.0402 -0.68433,0.31 -1.07325,0.61005 -1.925819,1.64323 -3.855894,3.40379 -6.049512,3.85742 -0.424423,0.007 -0.850469,0.081 -1.273273,0.0202 -0.405125,-0.0582 -0.977422,-0.93286 -1.198167,-0.37562 -0.205691,0.51925 0.886129,0.53795 0.888964,1.15617 0.0026,0.56978 -0.606765,-0.56957 -0.887826,-0.90784 -0.560714,-0.67485 -0.897113,-1.31874 -1.370958,-2.13088 -1.168506,-2.32516 -1.214828,-2.32548 -3.426923,-4.09474 -0.151924,-0.1215 -0.336845,-0.0965 -0.505524,-0.0749 -0.455228,0.0585 -0.859354,0.4128 -1.269801,0.6944 -2.556687,2.1473 -5.113799,4.44419 -8.007741,5.10078 -0.543205,0.0414 -1.086532,0.16944 -1.629617,0.12405 -0.449363,-0.0376 -1.031825,-0.92048 -1.33051,-0.37149 -0.253821,0.4665 0.802939,0.57935 0.886168,1.18816 0.0707,0.51713 -0.573338,-0.50494 -0.83551,-0.81762 -0.244369,-0.29143 -0.459767,-0.64341 -0.67737,-0.98667 -0.213954,-0.33751 -0.41085,-0.70266 -0.616266,-1.05399 -1.368549,-2.38317 -1.419552,-2.45869 -3.745326,-4.35091 -0.176541,-0.14364 -0.386274,-0.16829 -0.583507,-0.16148 -0.475564,0.0164 -0.768522,0.36559 -1.179259,0.70639 -1.387314,1.51561 -2.745392,3.10714 -4.197492,4.45828 0,0 2.03937,2.13445 2.03937,2.13445 z" />
  </g>
</svg>
